<?xml version="1.0" encoding="UTF-8" standalone="no"?>
<!DOCTYPE svg PUBLIC "-//W3C//DTD SVG 1.1//EN"
 "http://www.w3.org/Graphics/SVG/1.1/DTD/svg11.dtd">
<!-- Generated by graphviz version 6.0.1 (20220911.1526)
 -->
<!-- Pages: 1 -->
<svg width="300pt" height="675pt"
 viewBox="0.00 0.00 300.00 674.78" xmlns="http://www.w3.org/2000/svg" xmlns:xlink="http://www.w3.org/1999/xlink">
<g id="graph0" class="graph" transform="scale(1 1) rotate(0) translate(4 670.78)">
<polygon fill="white" stroke="none" points="-4,4 -4,-670.78 296,-670.78 296,4 -4,4"/>
<!-- dom/1 -->
<g id="node1" class="node">
<title>dom/1</title>
<path fill="#ffffcc" stroke="black" d="M119.5,-36C119.5,-36 88.5,-36 88.5,-36 82.5,-36 76.5,-30 76.5,-24 76.5,-24 76.5,-12 76.5,-12 76.5,-6 82.5,0 88.5,0 88.5,0 119.5,0 119.5,0 125.5,0 131.5,-6 131.5,-12 131.5,-12 131.5,-24 131.5,-24 131.5,-30 125.5,-36 119.5,-36"/>
<text text-anchor="middle" x="104" y="-14.3" font-family="Helvetica,sans-Serif" font-size="14.00">dom/1</text>
</g>
<!-- R2 -->
<g id="node2" class="node">
<title>R2</title>
<g id="a_node2"><a xlink:title="(2, &#39;e(X,Y) :&#45; dom(X); dom(Y); X != Y.&#39;)">
<ellipse fill="#ccffcc" stroke="black" cx="104" cy="-95.1" rx="22.2" ry="22.2"/>
<text text-anchor="middle" x="104" y="-91.4" font-family="Helvetica,sans-Serif" font-size="14.00">R2</text>
</a>
</g>
</g>
<!-- dom/1&#45;&gt;R2 -->
<g id="edge1" class="edge">
<title>dom/1&#45;&gt;R2</title>
<path fill="none" stroke="#b26e37" d="M104,-36.04C104,-43.96 104,-53.65 104,-62.81"/>
<polygon fill="#b26e37" stroke="#b26e37" points="100.5,-62.83 104,-72.83 107.5,-62.83 100.5,-62.83"/>
</g>
<!-- R7 -->
<g id="node3" class="node">
<title>R7</title>
<g id="a_node3"><a xlink:title="(7, &#39;start(X) :&#45; dom(X); not not_start(X).&#39;)">
<ellipse fill="#ccffcc" stroke="black" cx="265" cy="-571.69" rx="22.2" ry="22.2"/>
<text text-anchor="middle" x="265" y="-567.99" font-family="Helvetica,sans-Serif" font-size="14.00">R7</text>
</a>
</g>
</g>
<!-- dom/1&#45;&gt;R7 -->
<g id="edge2" class="edge">
<title>dom/1&#45;&gt;R7</title>
<path fill="none" stroke="#b26e37" d="M131.59,-18.14C183.61,-18.1 291,-26.23 291,-94.1 291,-94.1 291,-94.1 291,-481.59 291,-502.33 284.43,-524.74 277.89,-541.9"/>
<polygon fill="#b26e37" stroke="#b26e37" points="274.58,-540.76 274.09,-551.34 281.07,-543.37 274.58,-540.76"/>
</g>
<!-- R9 -->
<g id="node4" class="node">
<title>R9</title>
<g id="a_node4"><a xlink:title="(9, &#39;end(X) :&#45; dom(X); not not_end(X).&#39;)">
<ellipse fill="#ccffcc" stroke="black" cx="74" cy="-571.69" rx="22.2" ry="22.2"/>
<text text-anchor="middle" x="74" y="-567.99" font-family="Helvetica,sans-Serif" font-size="14.00">R9</text>
</a>
</g>
</g>
<!-- dom/1&#45;&gt;R9 -->
<g id="edge3" class="edge">
<title>dom/1&#45;&gt;R9</title>
<path fill="none" stroke="#b26e37" d="M83.15,-36.14C68.68,-50.06 52,-71.1 52,-94.1 52,-94.1 52,-94.1 52,-481.59 52,-501.78 57.39,-523.81 62.83,-540.91"/>
<polygon fill="#b26e37" stroke="#b26e37" points="59.68,-542.5 66.18,-550.86 66.31,-540.27 59.68,-542.5"/>
</g>
<!-- e/2 -->
<g id="node5" class="node">
<title>e/2</title>
<path fill="#ffffcc" stroke="black" d="M122,-190.2C122,-190.2 92,-190.2 92,-190.2 86,-190.2 80,-184.2 80,-178.2 80,-178.2 80,-166.2 80,-166.2 80,-160.2 86,-154.2 92,-154.2 92,-154.2 122,-154.2 122,-154.2 128,-154.2 134,-160.2 134,-166.2 134,-166.2 134,-178.2 134,-178.2 134,-184.2 128,-190.2 122,-190.2"/>
<text text-anchor="middle" x="107" y="-168.5" font-family="Helvetica,sans-Serif" font-size="14.00">e/2</text>
</g>
<!-- R2&#45;&gt;e/2 -->
<g id="edge6" class="edge">
<title>R2&#45;&gt;e/2</title>
<path fill="none" stroke="#b26e37" d="M104.85,-117.42C105.18,-125.68 105.56,-135.24 105.91,-143.99"/>
<polygon fill="#b26e37" stroke="#b26e37" points="102.42,-144.26 106.32,-154.11 109.42,-143.98 102.42,-144.26"/>
</g>
<!-- start/1 -->
<g id="node14" class="node">
<title>start/1</title>
<path fill="#ffffcc" stroke="black" d="M280,-666.78C280,-666.78 250,-666.78 250,-666.78 244,-666.78 238,-660.78 238,-654.78 238,-654.78 238,-642.78 238,-642.78 238,-636.78 244,-630.78 250,-630.78 250,-630.78 280,-630.78 280,-630.78 286,-630.78 292,-636.78 292,-642.78 292,-642.78 292,-654.78 292,-654.78 292,-660.78 286,-666.78 280,-666.78"/>
<text text-anchor="middle" x="265" y="-645.08" font-family="Helvetica,sans-Serif" font-size="14.00">start/1</text>
</g>
<!-- R7&#45;&gt;start/1 -->
<g id="edge16" class="edge">
<title>R7&#45;&gt;start/1</title>
<path fill="none" stroke="#b26e37" d="M265,-594.01C265,-602.27 265,-611.83 265,-620.58"/>
<polygon fill="#b26e37" stroke="#b26e37" points="261.5,-620.7 265,-630.7 268.5,-620.7 261.5,-620.7"/>
</g>
<!-- end/1 -->
<g id="node16" class="node">
<title>end/1</title>
<path fill="#ffffcc" stroke="black" d="M89,-666.78C89,-666.78 59,-666.78 59,-666.78 53,-666.78 47,-660.78 47,-654.78 47,-654.78 47,-642.78 47,-642.78 47,-636.78 53,-630.78 59,-630.78 59,-630.78 89,-630.78 89,-630.78 95,-630.78 101,-636.78 101,-642.78 101,-642.78 101,-654.78 101,-654.78 101,-660.78 95,-666.78 89,-666.78"/>
<text text-anchor="middle" x="74" y="-645.08" font-family="Helvetica,sans-Serif" font-size="14.00">end/1</text>
</g>
<!-- R9&#45;&gt;end/1 -->
<g id="edge19" class="edge">
<title>R9&#45;&gt;end/1</title>
<path fill="none" stroke="#b26e37" d="M74,-594.01C74,-602.27 74,-611.83 74,-620.58"/>
<polygon fill="#b26e37" stroke="#b26e37" points="70.5,-620.7 74,-630.7 77.5,-620.7 70.5,-620.7"/>
</g>
<!-- R3 -->
<g id="node6" class="node">
<title>R3</title>
<g id="a_node6"><a xlink:title="(3, &#39;e(Y,X) :&#45; e(Y,X).&#39;)">
<ellipse fill="#ccffcc" stroke="black" cx="104" cy="-249.29" rx="22.2" ry="22.2"/>
<text text-anchor="middle" x="104" y="-245.59" font-family="Helvetica,sans-Serif" font-size="14.00">R3</text>
</a>
</g>
</g>
<!-- e/2&#45;&gt;R3 -->
<g id="edge4" class="edge">
<title>e/2&#45;&gt;R3</title>
<path fill="none" stroke="#b26e37" d="M100.56,-190.24C99.37,-198.29 98.68,-208.15 98.58,-217.45"/>
<polygon fill="#b26e37" stroke="#b26e37" points="95.08,-217.62 98.72,-227.57 102.08,-217.53 95.08,-217.62"/>
</g>
<!-- R5 -->
<g id="node7" class="node">
<title>R5</title>
<g id="a_node7"><a xlink:title="(5, &#39;d(X,Y); d(Y,X) :&#45; e(X,Y).&#39;)">
<ellipse fill="#ccffff" stroke="black" cx="166" cy="-249.29" rx="22.2" ry="22.2"/>
<text text-anchor="middle" x="166" y="-245.59" font-family="Helvetica,sans-Serif" font-size="14.00">R5</text>
</a>
</g>
</g>
<!-- e/2&#45;&gt;R5 -->
<g id="edge5" class="edge">
<title>e/2&#45;&gt;R5</title>
<path fill="none" stroke="#b26e37" d="M120.39,-190.24C128.08,-200.03 137.89,-212.51 146.43,-223.39"/>
<polygon fill="#b26e37" stroke="#b26e37" points="143.73,-225.62 152.66,-231.32 149.24,-221.29 143.73,-225.62"/>
</g>
<!-- R3&#45;&gt;e/2 -->
<g id="edge8" class="edge">
<title>R3&#45;&gt;e/2</title>
<path fill="none" stroke="#b26e37" d="M110.87,-228.12C111.93,-219.61 112.49,-209.58 112.43,-200.43"/>
<polygon fill="#b26e37" stroke="#b26e37" points="115.92,-200.11 112.08,-190.24 108.93,-200.35 115.92,-200.11"/>
</g>
<!-- d/2 -->
<g id="node9" class="node">
<title>d/2</title>
<path fill="#ffffcc" stroke="black" d="M179,-344.39C179,-344.39 149,-344.39 149,-344.39 143,-344.39 137,-338.39 137,-332.39 137,-332.39 137,-320.39 137,-320.39 137,-314.39 143,-308.39 149,-308.39 149,-308.39 179,-308.39 179,-308.39 185,-308.39 191,-314.39 191,-320.39 191,-320.39 191,-332.39 191,-332.39 191,-338.39 185,-344.39 179,-344.39"/>
<text text-anchor="middle" x="164" y="-322.69" font-family="Helvetica,sans-Serif" font-size="14.00">d/2</text>
</g>
<!-- R5&#45;&gt;d/2 -->
<g id="edge13" class="edge">
<title>R5&#45;&gt;d/2</title>
<path fill="none" stroke="#b26e37" d="M165.43,-271.61C165.21,-279.88 164.96,-289.44 164.72,-298.18"/>
<polygon fill="#b26e37" stroke="#b26e37" points="161.22,-298.22 164.45,-308.31 168.22,-298.41 161.22,-298.22"/>
</g>
<!-- X -->
<g id="node8" class="node">
<title>X</title>
<path fill="#ffffcc" stroke="black" d="M42,-36C42,-36 12,-36 12,-36 6,-36 0,-30 0,-24 0,-24 0,-12 0,-12 0,-6 6,0 12,0 12,0 42,0 42,0 48,0 54,-6 54,-12 54,-12 54,-24 54,-24 54,-30 48,-36 42,-36"/>
<text text-anchor="middle" x="27" y="-14.3" font-family="Helvetica,sans-Serif" font-size="14.00">X</text>
</g>
<!-- X&#45;&gt;R2 -->
<g id="edge7" class="edge">
<title>X&#45;&gt;R2</title>
<path fill="none" stroke="#b26e37" d="M44.47,-36.04C55.39,-46.69 69.57,-60.52 81.35,-72"/>
<polygon fill="#b26e37" stroke="#b26e37" points="79.08,-74.68 88.68,-79.16 83.97,-69.67 79.08,-74.68"/>
</g>
<!-- R4 -->
<g id="node10" class="node">
<title>R4</title>
<g id="a_node10"><a xlink:title="(4, &#39;d(X,Y) :&#45; d(X,Z); d(Z,Y).&#39;)">
<ellipse fill="#ccffcc" stroke="black" cx="102" cy="-403.49" rx="22.2" ry="22.2"/>
<text text-anchor="middle" x="102" y="-399.79" font-family="Helvetica,sans-Serif" font-size="14.00">R4</text>
</a>
</g>
</g>
<!-- d/2&#45;&gt;R4 -->
<g id="edge9" class="edge">
<title>d/2&#45;&gt;R4</title>
<path fill="none" stroke="#b26e37" d="M144.17,-344.43C135.63,-353.58 125.89,-365.08 117.84,-375.42"/>
<polygon fill="#b26e37" stroke="#b26e37" points="115.04,-373.32 111.79,-383.4 120.62,-377.54 115.04,-373.32"/>
</g>
<!-- R6 -->
<g id="node11" class="node">
<title>R6</title>
<g id="a_node11"><a xlink:title="(6, &#39;not_start(X) :&#45; d(_,X).&#39;)">
<ellipse fill="#ccffcc" stroke="black" cx="226" cy="-403.49" rx="22.2" ry="22.2"/>
<text text-anchor="middle" x="226" y="-399.79" font-family="Helvetica,sans-Serif" font-size="14.00">R6</text>
</a>
</g>
</g>
<!-- d/2&#45;&gt;R6 -->
<g id="edge10" class="edge">
<title>d/2&#45;&gt;R6</title>
<path fill="none" stroke="#b26e37" d="M178.07,-344.43C186.27,-354.36 196.75,-367.06 205.82,-378.04"/>
<polygon fill="#b26e37" stroke="#b26e37" points="203.35,-380.55 212.41,-386.03 208.75,-376.09 203.35,-380.55"/>
</g>
<!-- R8 -->
<g id="node12" class="node">
<title>R8</title>
<g id="a_node12"><a xlink:title="(8, &#39;not_end(X) :&#45; d(X,_).&#39;)">
<ellipse fill="#ccffcc" stroke="black" cx="164" cy="-403.49" rx="22.2" ry="22.2"/>
<text text-anchor="middle" x="164" y="-399.79" font-family="Helvetica,sans-Serif" font-size="14.00">R8</text>
</a>
</g>
</g>
<!-- d/2&#45;&gt;R8 -->
<g id="edge11" class="edge">
<title>d/2&#45;&gt;R8</title>
<path fill="none" stroke="#b26e37" d="M164,-344.43C164,-352.36 164,-362.04 164,-371.21"/>
<polygon fill="#b26e37" stroke="#b26e37" points="160.5,-371.22 164,-381.22 167.5,-371.22 160.5,-371.22"/>
</g>
<!-- R4&#45;&gt;d/2 -->
<g id="edge12" class="edge">
<title>R4&#45;&gt;d/2</title>
<path fill="none" stroke="#b26e37" d="M118.91,-388.53C128.55,-378.5 140.29,-364.69 149.5,-352.73"/>
<polygon fill="#b26e37" stroke="#b26e37" points="152.52,-354.54 155.69,-344.43 146.91,-350.36 152.52,-354.54"/>
</g>
<!-- not_start/1 -->
<g id="node13" class="node">
<title>not_start/1</title>
<path fill="#ffffcc" stroke="black" d="M251,-498.59C251,-498.59 195,-498.59 195,-498.59 189,-498.59 183,-492.59 183,-486.59 183,-486.59 183,-474.59 183,-474.59 183,-468.59 189,-462.59 195,-462.59 195,-462.59 251,-462.59 251,-462.59 257,-462.59 263,-468.59 263,-474.59 263,-474.59 263,-486.59 263,-486.59 263,-492.59 257,-498.59 251,-498.59"/>
<text text-anchor="middle" x="223" y="-476.89" font-family="Helvetica,sans-Serif" font-size="14.00">not_start/1</text>
</g>
<!-- R6&#45;&gt;not_start/1 -->
<g id="edge15" class="edge">
<title>R6&#45;&gt;not_start/1</title>
<path fill="none" stroke="#b26e37" d="M225.15,-425.81C224.82,-434.07 224.44,-443.63 224.09,-452.38"/>
<polygon fill="#b26e37" stroke="#b26e37" points="220.58,-452.37 223.68,-462.51 227.58,-452.65 220.58,-452.37"/>
</g>
<!-- not_end/1 -->
<g id="node15" class="node">
<title>not_end/1</title>
<path fill="#ffffcc" stroke="black" d="M150.5,-498.59C150.5,-498.59 97.5,-498.59 97.5,-498.59 91.5,-498.59 85.5,-492.59 85.5,-486.59 85.5,-486.59 85.5,-474.59 85.5,-474.59 85.5,-468.59 91.5,-462.59 97.5,-462.59 97.5,-462.59 150.5,-462.59 150.5,-462.59 156.5,-462.59 162.5,-468.59 162.5,-474.59 162.5,-474.59 162.5,-486.59 162.5,-486.59 162.5,-492.59 156.5,-498.59 150.5,-498.59"/>
<text text-anchor="middle" x="124" y="-476.89" font-family="Helvetica,sans-Serif" font-size="14.00">not_end/1</text>
</g>
<!-- R8&#45;&gt;not_end/1 -->
<g id="edge18" class="edge">
<title>R8&#45;&gt;not_end/1</title>
<path fill="none" stroke="#b26e37" d="M153.91,-423.44C149.07,-432.53 143.19,-443.56 137.93,-453.43"/>
<polygon fill="#b26e37" stroke="#b26e37" points="134.74,-451.97 133.13,-462.44 140.92,-455.26 134.74,-451.97"/>
</g>
<!-- not_start/1&#45;&gt;R7 -->
<g id="edge14" class="edge">
<title>not_start/1&#45;&gt;R7</title>
<path fill="none" stroke="#cd0000" stroke-width="1.8" stroke-dasharray="5,2" d="M231.1,-498.77C236.87,-511.01 244.76,-527.76 251.48,-542.01"/>
<polygon fill="#cd0000" stroke="#cd0000" stroke-width="1.8" points="248.48,-543.84 255.91,-551.39 254.81,-540.86 248.48,-543.84"/>
<text text-anchor="middle" x="255.5" y="-520.39" font-family="Palatino Linotype,serif" font-style="italic" font-size="14.00" fill="#cd0000">not</text>
</g>
<!-- not_end/1&#45;&gt;R9 -->
<g id="edge17" class="edge">
<title>not_end/1&#45;&gt;R9</title>
<path fill="none" stroke="#cd0000" stroke-width="1.8" stroke-dasharray="5,2" d="M114.36,-498.77C107.33,-511.29 97.65,-528.54 89.54,-543"/>
<polygon fill="#cd0000" stroke="#cd0000" stroke-width="1.8" points="86.32,-541.59 84.47,-552.02 92.42,-545.01 86.32,-541.59"/>
<text text-anchor="middle" x="112.5" y="-520.39" font-family="Palatino Linotype,serif" font-style="italic" font-size="14.00" fill="#cd0000">not</text>
</g>
</g>
</svg>
