<?xml version="1.0" encoding="UTF-8" standalone="no"?>
<!DOCTYPE svg PUBLIC "-//W3C//DTD SVG 1.1//EN"
 "http://www.w3.org/Graphics/SVG/1.1/DTD/svg11.dtd">
<!-- Generated by graphviz version 6.0.1 (20220911.1526)
 -->
<!-- Pages: 1 -->
<svg width="315pt" height="521pt"
 viewBox="0.00 0.00 314.50 520.59" xmlns="http://www.w3.org/2000/svg" xmlns:xlink="http://www.w3.org/1999/xlink">
<g id="graph0" class="graph" transform="scale(1 1) rotate(0) translate(4 516.59)">
<polygon fill="white" stroke="none" points="-4,4 -4,-516.59 310.5,-516.59 310.5,4 -4,4"/>
<!-- parent/2 -->
<g id="node1" class="node">
<title>parent/2</title>
<path fill="#ffffcc" stroke="black" d="M130.5,-36C130.5,-36 88.5,-36 88.5,-36 82.5,-36 76.5,-30 76.5,-24 76.5,-24 76.5,-12 76.5,-12 76.5,-6 82.5,0 88.5,0 88.5,0 130.5,0 130.5,0 136.5,0 142.5,-6 142.5,-12 142.5,-12 142.5,-24 142.5,-24 142.5,-30 136.5,-36 130.5,-36"/>
<text text-anchor="middle" x="109.5" y="-14.3" font-family="Helvetica,sans-Serif" font-size="14.00">parent/2</text>
</g>
<!-- R0 -->
<g id="node2" class="node">
<title>R0</title>
<g id="a_node2"><a xlink:title="(0, &#39;father(X,Y) :&#45; parent(X,Y); male(X).&#39;)">
<ellipse fill="#ccffcc" stroke="black" cx="270.5" cy="-95.1" rx="22.2" ry="22.2"/>
<text text-anchor="middle" x="270.5" y="-91.4" font-family="Helvetica,sans-Serif" font-size="14.00">R0</text>
</a>
</g>
</g>
<!-- parent/2&#45;&gt;R0 -->
<g id="edge1" class="edge">
<title>parent/2&#45;&gt;R0</title>
<path fill="none" stroke="#b26e37" d="M142.86,-34.56C172.03,-48.16 213.94,-67.72 241.68,-80.65"/>
<polygon fill="#b26e37" stroke="#b26e37" points="240.31,-83.88 250.85,-84.93 243.27,-77.53 240.31,-83.88"/>
</g>
<!-- R1 -->
<g id="node3" class="node">
<title>R1</title>
<g id="a_node3"><a xlink:title="(1, &#39;mother(X,Y) :&#45; parent(X,Y); female(X).&#39;)">
<ellipse fill="#ccffcc" stroke="black" cx="185.5" cy="-95.1" rx="22.2" ry="22.2"/>
<text text-anchor="middle" x="185.5" y="-91.4" font-family="Helvetica,sans-Serif" font-size="14.00">R1</text>
</a>
</g>
</g>
<!-- parent/2&#45;&gt;R1 -->
<g id="edge2" class="edge">
<title>parent/2&#45;&gt;R1</title>
<path fill="none" stroke="#b26e37" d="M126.75,-36.04C137.45,-46.62 151.33,-60.33 162.91,-71.77"/>
<polygon fill="#b26e37" stroke="#b26e37" points="160.55,-74.37 170.13,-78.91 165.47,-69.39 160.55,-74.37"/>
</g>
<!-- R2 -->
<g id="node4" class="node">
<title>R2</title>
<g id="a_node4"><a xlink:title="(2, &#39;person(A) :&#45; parent(A,_).&#39;)">
<ellipse fill="#ccffcc" stroke="black" cx="118.5" cy="-95.1" rx="22.2" ry="22.2"/>
<text text-anchor="middle" x="118.5" y="-91.4" font-family="Helvetica,sans-Serif" font-size="14.00">R2</text>
</a>
</g>
</g>
<!-- parent/2&#45;&gt;R2 -->
<g id="edge3" class="edge">
<title>parent/2&#45;&gt;R2</title>
<path fill="none" stroke="#b26e37" d="M111.54,-36.04C112.5,-44.03 113.67,-53.8 114.78,-63.03"/>
<polygon fill="#b26e37" stroke="#b26e37" points="111.32,-63.59 115.98,-73.1 118.27,-62.76 111.32,-63.59"/>
</g>
<!-- R3 -->
<g id="node5" class="node">
<title>R3</title>
<g id="a_node5"><a xlink:title="(3, &#39;person(B) :&#45; parent(_,B).&#39;)">
<ellipse fill="#ccffcc" stroke="black" cx="56.5" cy="-95.1" rx="22.2" ry="22.2"/>
<text text-anchor="middle" x="56.5" y="-91.4" font-family="Helvetica,sans-Serif" font-size="14.00">R3</text>
</a>
</g>
</g>
<!-- parent/2&#45;&gt;R3 -->
<g id="edge4" class="edge">
<title>parent/2&#45;&gt;R3</title>
<path fill="none" stroke="#b26e37" d="M97.47,-36.04C90.73,-45.6 82.17,-57.72 74.63,-68.41"/>
<polygon fill="#b26e37" stroke="#b26e37" points="71.75,-66.42 68.85,-76.6 77.47,-70.45 71.75,-66.42"/>
</g>
<!-- father/2 -->
<g id="node6" class="node">
<title>father/2</title>
<path fill="#ffffcc" stroke="black" d="M289.5,-190.2C289.5,-190.2 251.5,-190.2 251.5,-190.2 245.5,-190.2 239.5,-184.2 239.5,-178.2 239.5,-178.2 239.5,-166.2 239.5,-166.2 239.5,-160.2 245.5,-154.2 251.5,-154.2 251.5,-154.2 289.5,-154.2 289.5,-154.2 295.5,-154.2 301.5,-160.2 301.5,-166.2 301.5,-166.2 301.5,-178.2 301.5,-178.2 301.5,-184.2 295.5,-190.2 289.5,-190.2"/>
<text text-anchor="middle" x="270.5" y="-168.5" font-family="Helvetica,sans-Serif" font-size="14.00">father/2</text>
</g>
<!-- R0&#45;&gt;father/2 -->
<g id="edge6" class="edge">
<title>R0&#45;&gt;father/2</title>
<path fill="none" stroke="#b26e37" d="M270.5,-117.42C270.5,-125.68 270.5,-135.24 270.5,-143.99"/>
<polygon fill="#b26e37" stroke="#b26e37" points="267,-144.11 270.5,-154.11 274,-144.11 267,-144.11"/>
</g>
<!-- mother/2 -->
<g id="node9" class="node">
<title>mother/2</title>
<path fill="#ffffcc" stroke="black" d="M209,-190.2C209,-190.2 162,-190.2 162,-190.2 156,-190.2 150,-184.2 150,-178.2 150,-178.2 150,-166.2 150,-166.2 150,-160.2 156,-154.2 162,-154.2 162,-154.2 209,-154.2 209,-154.2 215,-154.2 221,-160.2 221,-166.2 221,-166.2 221,-178.2 221,-178.2 221,-184.2 215,-190.2 209,-190.2"/>
<text text-anchor="middle" x="185.5" y="-168.5" font-family="Helvetica,sans-Serif" font-size="14.00">mother/2</text>
</g>
<!-- R1&#45;&gt;mother/2 -->
<g id="edge9" class="edge">
<title>R1&#45;&gt;mother/2</title>
<path fill="none" stroke="#b26e37" d="M185.5,-117.42C185.5,-125.68 185.5,-135.24 185.5,-143.99"/>
<polygon fill="#b26e37" stroke="#b26e37" points="182,-144.11 185.5,-154.11 189,-144.11 182,-144.11"/>
</g>
<!-- person/1 -->
<g id="node11" class="node">
<title>person/1</title>
<path fill="#ffffcc" stroke="black" d="M119,-190.2C119,-190.2 74,-190.2 74,-190.2 68,-190.2 62,-184.2 62,-178.2 62,-178.2 62,-166.2 62,-166.2 62,-160.2 68,-154.2 74,-154.2 74,-154.2 119,-154.2 119,-154.2 125,-154.2 131,-160.2 131,-166.2 131,-166.2 131,-178.2 131,-178.2 131,-184.2 125,-190.2 119,-190.2"/>
<text text-anchor="middle" x="96.5" y="-168.5" font-family="Helvetica,sans-Serif" font-size="14.00">person/1</text>
</g>
<!-- R2&#45;&gt;person/1 -->
<g id="edge13" class="edge">
<title>R2&#45;&gt;person/1</title>
<path fill="none" stroke="#b26e37" d="M112.49,-116.62C110.01,-125.08 107.11,-134.99 104.46,-144.04"/>
<polygon fill="#b26e37" stroke="#b26e37" points="101.06,-143.17 101.61,-153.75 107.78,-145.14 101.06,-143.17"/>
</g>
<!-- R3&#45;&gt;person/1 -->
<g id="edge14" class="edge">
<title>R3&#45;&gt;person/1</title>
<path fill="none" stroke="#b26e37" d="M66.59,-115.05C71.43,-124.14 77.31,-135.17 82.57,-145.04"/>
<polygon fill="#b26e37" stroke="#b26e37" points="79.58,-146.87 87.37,-154.05 85.76,-143.58 79.58,-146.87"/>
</g>
<!-- R4 -->
<g id="node7" class="node">
<title>R4</title>
<g id="a_node7"><a xlink:title="(4, &#39;has_father_mother(A) :&#45; person(A); father(_,A); mother(_,A).&#39;)">
<ellipse fill="#ccffcc" stroke="black" cx="188.5" cy="-249.29" rx="22.2" ry="22.2"/>
<text text-anchor="middle" x="188.5" y="-245.59" font-family="Helvetica,sans-Serif" font-size="14.00">R4</text>
</a>
</g>
</g>
<!-- father/2&#45;&gt;R4 -->
<g id="edge5" class="edge">
<title>father/2&#45;&gt;R4</title>
<path fill="none" stroke="#b26e37" d="M251.89,-190.24C240.08,-201.06 224.68,-215.16 212.02,-226.76"/>
<polygon fill="#b26e37" stroke="#b26e37" points="209.55,-224.27 204.54,-233.6 214.28,-229.43 209.55,-224.27"/>
</g>
<!-- has_father_mother/1 -->
<g id="node13" class="node">
<title>has_father_mother/1</title>
<path fill="#ffffcc" stroke="black" d="M249.5,-344.39C249.5,-344.39 131.5,-344.39 131.5,-344.39 125.5,-344.39 119.5,-338.39 119.5,-332.39 119.5,-332.39 119.5,-320.39 119.5,-320.39 119.5,-314.39 125.5,-308.39 131.5,-308.39 131.5,-308.39 249.5,-308.39 249.5,-308.39 255.5,-308.39 261.5,-314.39 261.5,-320.39 261.5,-320.39 261.5,-332.39 261.5,-332.39 261.5,-338.39 255.5,-344.39 249.5,-344.39"/>
<text text-anchor="middle" x="190.5" y="-322.69" font-family="Helvetica,sans-Serif" font-size="14.00">has_father_mother/1</text>
</g>
<!-- R4&#45;&gt;has_father_mother/1 -->
<g id="edge16" class="edge">
<title>R4&#45;&gt;has_father_mother/1</title>
<path fill="none" stroke="#b26e37" d="M189.07,-271.61C189.29,-279.88 189.54,-289.44 189.78,-298.18"/>
<polygon fill="#b26e37" stroke="#b26e37" points="186.28,-298.41 190.05,-308.31 193.28,-298.22 186.28,-298.41"/>
</g>
<!-- male/1 -->
<g id="node8" class="node">
<title>male/1</title>
<path fill="#ffffcc" stroke="black" d="M294.5,-36C294.5,-36 260.5,-36 260.5,-36 254.5,-36 248.5,-30 248.5,-24 248.5,-24 248.5,-12 248.5,-12 248.5,-6 254.5,0 260.5,0 260.5,0 294.5,0 294.5,0 300.5,0 306.5,-6 306.5,-12 306.5,-12 306.5,-24 306.5,-24 306.5,-30 300.5,-36 294.5,-36"/>
<text text-anchor="middle" x="277.5" y="-14.3" font-family="Helvetica,sans-Serif" font-size="14.00">male/1</text>
</g>
<!-- male/1&#45;&gt;R0 -->
<g id="edge7" class="edge">
<title>male/1&#45;&gt;R0</title>
<path fill="none" stroke="#b26e37" d="M275.91,-36.04C275.17,-43.96 274.27,-53.65 273.42,-62.81"/>
<polygon fill="#b26e37" stroke="#b26e37" points="269.93,-62.54 272.48,-72.83 276.9,-63.19 269.93,-62.54"/>
</g>
<!-- mother/2&#45;&gt;R4 -->
<g id="edge8" class="edge">
<title>mother/2&#45;&gt;R4</title>
<path fill="none" stroke="#b26e37" d="M186.18,-190.24C186.5,-198.16 186.88,-207.84 187.25,-217.01"/>
<polygon fill="#b26e37" stroke="#b26e37" points="183.75,-217.17 187.65,-227.02 190.75,-216.89 183.75,-217.17"/>
</g>
<!-- female/1 -->
<g id="node10" class="node">
<title>female/1</title>
<path fill="#ffffcc" stroke="black" d="M218,-36C218,-36 173,-36 173,-36 167,-36 161,-30 161,-24 161,-24 161,-12 161,-12 161,-6 167,0 173,0 173,0 218,0 218,0 224,0 230,-6 230,-12 230,-12 230,-24 230,-24 230,-30 224,-36 218,-36"/>
<text text-anchor="middle" x="195.5" y="-14.3" font-family="Helvetica,sans-Serif" font-size="14.00">female/1</text>
</g>
<!-- female/1&#45;&gt;R1 -->
<g id="edge10" class="edge">
<title>female/1&#45;&gt;R1</title>
<path fill="none" stroke="#b26e37" d="M193.23,-36.04C192.17,-44.03 190.87,-53.8 189.64,-63.03"/>
<polygon fill="#b26e37" stroke="#b26e37" points="186.15,-62.73 188.3,-73.1 193.09,-63.65 186.15,-62.73"/>
</g>
<!-- person/1&#45;&gt;R4 -->
<g id="edge11" class="edge">
<title>person/1&#45;&gt;R4</title>
<path fill="none" stroke="#b26e37" d="M117.38,-190.24C131.11,-201.45 149.17,-216.19 163.65,-228.01"/>
<polygon fill="#b26e37" stroke="#b26e37" points="161.74,-230.97 171.7,-234.58 166.16,-225.54 161.74,-230.97"/>
</g>
<!-- R5 -->
<g id="node12" class="node">
<title>R5</title>
<g id="a_node12"><a xlink:title="(5, &#39;icv_person_has_father_mother(A) :&#45; person(A); not has_father_mother(A).&#39;)">
<ellipse fill="#ccffcc" stroke="black" cx="107.5" cy="-417.49" rx="22.2" ry="22.2"/>
<text text-anchor="middle" x="107.5" y="-413.79" font-family="Helvetica,sans-Serif" font-size="14.00">R5</text>
</a>
</g>
</g>
<!-- person/1&#45;&gt;R5 -->
<g id="edge12" class="edge">
<title>person/1&#45;&gt;R5</title>
<path fill="none" stroke="#b26e37" d="M97.27,-190.3C99.1,-230.8 103.73,-333 106.08,-385.02"/>
<polygon fill="#b26e37" stroke="#b26e37" points="102.59,-385.49 106.54,-395.32 109.59,-385.17 102.59,-385.49"/>
</g>
<!-- icv_person_has_father_mother/1 -->
<g id="node14" class="node">
<title>icv_person_has_father_mother/1</title>
<path fill="#ffffcc" stroke="black" d="M203,-512.59C203,-512.59 12,-512.59 12,-512.59 6,-512.59 0,-506.59 0,-500.59 0,-500.59 0,-488.59 0,-488.59 0,-482.59 6,-476.59 12,-476.59 12,-476.59 203,-476.59 203,-476.59 209,-476.59 215,-482.59 215,-488.59 215,-488.59 215,-500.59 215,-500.59 215,-506.59 209,-512.59 203,-512.59"/>
<text text-anchor="middle" x="107.5" y="-490.89" font-family="Helvetica,sans-Serif" font-size="14.00">icv_person_has_father_mother/1</text>
</g>
<!-- R5&#45;&gt;icv_person_has_father_mother/1 -->
<g id="edge17" class="edge">
<title>R5&#45;&gt;icv_person_has_father_mother/1</title>
<path fill="none" stroke="#b26e37" d="M107.5,-439.81C107.5,-448.07 107.5,-457.63 107.5,-466.38"/>
<polygon fill="#b26e37" stroke="#b26e37" points="104,-466.51 107.5,-476.51 111,-466.51 104,-466.51"/>
</g>
<!-- has_father_mother/1&#45;&gt;R5 -->
<g id="edge15" class="edge">
<title>has_father_mother/1&#45;&gt;R5</title>
<path fill="none" stroke="#cd0000" stroke-width="1.8" stroke-dasharray="5,2" d="M174.5,-344.57C161.58,-358.44 143.28,-378.08 129.07,-393.33"/>
<polygon fill="#cd0000" stroke="#cd0000" stroke-width="1.8" points="126.32,-391.15 122.06,-400.86 131.44,-395.92 126.32,-391.15"/>
<text text-anchor="middle" x="166" y="-366.19" font-family="Palatino Linotype,serif" font-style="italic" font-size="14.00" fill="#cd0000">not</text>
</g>
</g>
</svg>
