<?xml version="1.0" encoding="UTF-8" standalone="no"?>
<!DOCTYPE svg PUBLIC "-//W3C//DTD SVG 1.1//EN"
 "http://www.w3.org/Graphics/SVG/1.1/DTD/svg11.dtd">
<!-- Generated by graphviz version 6.0.1 (20220911.1526)
 -->
<!-- Pages: 1 -->
<svg width="772pt" height="521pt"
 viewBox="0.00 0.00 771.50 520.59" xmlns="http://www.w3.org/2000/svg" xmlns:xlink="http://www.w3.org/1999/xlink">
<g id="graph0" class="graph" transform="scale(1 1) rotate(0) translate(4 516.59)">
<polygon fill="white" stroke="none" points="-4,4 -4,-516.59 767.5,-516.59 767.5,4 -4,4"/>
<!-- parent/[&#39;X&#39;, &#39;Y&#39;] -->
<g id="node1" class="node">
<title>parent/[&#39;X&#39;, &#39;Y&#39;]</title>
<path fill="#ffffcc" stroke="black" d="M183.5,-36C183.5,-36 103.5,-36 103.5,-36 97.5,-36 91.5,-30 91.5,-24 91.5,-24 91.5,-12 91.5,-12 91.5,-6 97.5,0 103.5,0 103.5,0 183.5,0 183.5,0 189.5,0 195.5,-6 195.5,-12 195.5,-12 195.5,-24 195.5,-24 195.5,-30 189.5,-36 183.5,-36"/>
<text text-anchor="middle" x="143.5" y="-14.3" font-family="Helvetica,sans-Serif" font-size="14.00">parent/[&#39;X&#39;, &#39;Y&#39;]</text>
</g>
<!-- R0 -->
<g id="node2" class="node">
<title>R0</title>
<g id="a_node2"><a xlink:title="(0, &#39;father(X,Y) :&#45; parent(X,Y); male(X).&#39;)">
<ellipse fill="#ccffcc" stroke="black" cx="84.5" cy="-95.1" rx="22.2" ry="22.2"/>
<text text-anchor="middle" x="84.5" y="-91.4" font-family="Helvetica,sans-Serif" font-size="14.00">R0</text>
</a>
</g>
</g>
<!-- parent/[&#39;X&#39;, &#39;Y&#39;]&#45;&gt;R0 -->
<g id="edge1" class="edge">
<title>parent/[&#39;X&#39;, &#39;Y&#39;]&#45;&gt;R0</title>
<path fill="none" stroke="#b26e37" d="M130.11,-36.04C122.42,-45.83 112.61,-58.31 104.07,-69.19"/>
<polygon fill="#b26e37" stroke="#b26e37" points="101.26,-67.1 97.84,-77.12 106.77,-71.42 101.26,-67.1"/>
</g>
<!-- R1 -->
<g id="node3" class="node">
<title>R1</title>
<g id="a_node3"><a xlink:title="(1, &#39;mother(X,Y) :&#45; parent(X,Y); female(X).&#39;)">
<ellipse fill="#ccffcc" stroke="black" cx="254.5" cy="-95.1" rx="22.2" ry="22.2"/>
<text text-anchor="middle" x="254.5" y="-91.4" font-family="Helvetica,sans-Serif" font-size="14.00">R1</text>
</a>
</g>
</g>
<!-- parent/[&#39;X&#39;, &#39;Y&#39;]&#45;&gt;R1 -->
<g id="edge2" class="edge">
<title>parent/[&#39;X&#39;, &#39;Y&#39;]&#45;&gt;R1</title>
<path fill="none" stroke="#b26e37" d="M168.69,-36.04C186.5,-48.09 210.32,-64.2 228.34,-76.4"/>
<polygon fill="#b26e37" stroke="#b26e37" points="226.43,-79.33 236.67,-82.03 230.35,-73.53 226.43,-79.33"/>
</g>
<!-- father/[&#39;X&#39;, &#39;Y&#39;] -->
<g id="node4" class="node">
<title>father/[&#39;X&#39;, &#39;Y&#39;]</title>
<path fill="#ffffcc" stroke="black" d="M122.5,-190.2C122.5,-190.2 46.5,-190.2 46.5,-190.2 40.5,-190.2 34.5,-184.2 34.5,-178.2 34.5,-178.2 34.5,-166.2 34.5,-166.2 34.5,-160.2 40.5,-154.2 46.5,-154.2 46.5,-154.2 122.5,-154.2 122.5,-154.2 128.5,-154.2 134.5,-160.2 134.5,-166.2 134.5,-166.2 134.5,-178.2 134.5,-178.2 134.5,-184.2 128.5,-190.2 122.5,-190.2"/>
<text text-anchor="middle" x="84.5" y="-168.5" font-family="Helvetica,sans-Serif" font-size="14.00">father/[&#39;X&#39;, &#39;Y&#39;]</text>
</g>
<!-- R0&#45;&gt;father/[&#39;X&#39;, &#39;Y&#39;] -->
<g id="edge3" class="edge">
<title>R0&#45;&gt;father/[&#39;X&#39;, &#39;Y&#39;]</title>
<path fill="none" stroke="#b26e37" d="M84.5,-117.42C84.5,-125.68 84.5,-135.24 84.5,-143.99"/>
<polygon fill="#b26e37" stroke="#b26e37" points="81,-144.11 84.5,-154.11 88,-144.11 81,-144.11"/>
</g>
<!-- mother/[&#39;X&#39;, &#39;Y&#39;] -->
<g id="node6" class="node">
<title>mother/[&#39;X&#39;, &#39;Y&#39;]</title>
<path fill="#ffffcc" stroke="black" d="M296.5,-190.2C296.5,-190.2 212.5,-190.2 212.5,-190.2 206.5,-190.2 200.5,-184.2 200.5,-178.2 200.5,-178.2 200.5,-166.2 200.5,-166.2 200.5,-160.2 206.5,-154.2 212.5,-154.2 212.5,-154.2 296.5,-154.2 296.5,-154.2 302.5,-154.2 308.5,-160.2 308.5,-166.2 308.5,-166.2 308.5,-178.2 308.5,-178.2 308.5,-184.2 302.5,-190.2 296.5,-190.2"/>
<text text-anchor="middle" x="254.5" y="-168.5" font-family="Helvetica,sans-Serif" font-size="14.00">mother/[&#39;X&#39;, &#39;Y&#39;]</text>
</g>
<!-- R1&#45;&gt;mother/[&#39;X&#39;, &#39;Y&#39;] -->
<g id="edge5" class="edge">
<title>R1&#45;&gt;mother/[&#39;X&#39;, &#39;Y&#39;]</title>
<path fill="none" stroke="#b26e37" d="M254.5,-117.42C254.5,-125.68 254.5,-135.24 254.5,-143.99"/>
<polygon fill="#b26e37" stroke="#b26e37" points="251,-144.11 254.5,-154.11 258,-144.11 251,-144.11"/>
</g>
<!-- male/[&#39;X&#39;] -->
<g id="node5" class="node">
<title>male/[&#39;X&#39;]</title>
<path fill="#ffffcc" stroke="black" d="M61,-36C61,-36 12,-36 12,-36 6,-36 0,-30 0,-24 0,-24 0,-12 0,-12 0,-6 6,0 12,0 12,0 61,0 61,0 67,0 73,-6 73,-12 73,-12 73,-24 73,-24 73,-30 67,-36 61,-36"/>
<text text-anchor="middle" x="36.5" y="-14.3" font-family="Helvetica,sans-Serif" font-size="14.00">male/[&#39;X&#39;]</text>
</g>
<!-- male/[&#39;X&#39;]&#45;&gt;R0 -->
<g id="edge4" class="edge">
<title>male/[&#39;X&#39;]&#45;&gt;R0</title>
<path fill="none" stroke="#b26e37" d="M47.39,-36.04C53.36,-45.37 60.88,-57.14 67.59,-67.64"/>
<polygon fill="#b26e37" stroke="#b26e37" points="64.65,-69.54 72.98,-76.08 70.55,-65.77 64.65,-69.54"/>
</g>
<!-- female/[&#39;X&#39;] -->
<g id="node7" class="node">
<title>female/[&#39;X&#39;]</title>
<path fill="#ffffcc" stroke="black" d="M285.5,-36C285.5,-36 225.5,-36 225.5,-36 219.5,-36 213.5,-30 213.5,-24 213.5,-24 213.5,-12 213.5,-12 213.5,-6 219.5,0 225.5,0 225.5,0 285.5,0 285.5,0 291.5,0 297.5,-6 297.5,-12 297.5,-12 297.5,-24 297.5,-24 297.5,-30 291.5,-36 285.5,-36"/>
<text text-anchor="middle" x="255.5" y="-14.3" font-family="Helvetica,sans-Serif" font-size="14.00">female/[&#39;X&#39;]</text>
</g>
<!-- female/[&#39;X&#39;]&#45;&gt;R1 -->
<g id="edge6" class="edge">
<title>female/[&#39;X&#39;]&#45;&gt;R1</title>
<path fill="none" stroke="#b26e37" d="M255.27,-36.04C255.17,-43.96 255.04,-53.65 254.92,-62.81"/>
<polygon fill="#b26e37" stroke="#b26e37" points="251.42,-62.78 254.78,-72.83 258.42,-62.87 251.42,-62.78"/>
</g>
<!-- parent/[&#39;A&#39;, &#39;_&#39;] -->
<g id="node8" class="node">
<title>parent/[&#39;A&#39;, &#39;_&#39;]</title>
<path fill="#ffffcc" stroke="black" d="M407.5,-36C407.5,-36 329.5,-36 329.5,-36 323.5,-36 317.5,-30 317.5,-24 317.5,-24 317.5,-12 317.5,-12 317.5,-6 323.5,0 329.5,0 329.5,0 407.5,0 407.5,0 413.5,0 419.5,-6 419.5,-12 419.5,-12 419.5,-24 419.5,-24 419.5,-30 413.5,-36 407.5,-36"/>
<text text-anchor="middle" x="368.5" y="-14.3" font-family="Helvetica,sans-Serif" font-size="14.00">parent/[&#39;A&#39;, &#39;_&#39;]</text>
</g>
<!-- R2 -->
<g id="node9" class="node">
<title>R2</title>
<g id="a_node9"><a xlink:title="(2, &#39;person(A) :&#45; parent(A,_).&#39;)">
<ellipse fill="#ccffcc" stroke="black" cx="368.5" cy="-95.1" rx="22.2" ry="22.2"/>
<text text-anchor="middle" x="368.5" y="-91.4" font-family="Helvetica,sans-Serif" font-size="14.00">R2</text>
</a>
</g>
</g>
<!-- parent/[&#39;A&#39;, &#39;_&#39;]&#45;&gt;R2 -->
<g id="edge7" class="edge">
<title>parent/[&#39;A&#39;, &#39;_&#39;]&#45;&gt;R2</title>
<path fill="none" stroke="#b26e37" d="M368.5,-36.04C368.5,-43.96 368.5,-53.65 368.5,-62.81"/>
<polygon fill="#b26e37" stroke="#b26e37" points="365,-62.83 368.5,-72.83 372,-62.83 365,-62.83"/>
</g>
<!-- person/[&#39;A&#39;] -->
<g id="node10" class="node">
<title>person/[&#39;A&#39;]</title>
<path fill="#ffffcc" stroke="black" d="M398.5,-190.2C398.5,-190.2 338.5,-190.2 338.5,-190.2 332.5,-190.2 326.5,-184.2 326.5,-178.2 326.5,-178.2 326.5,-166.2 326.5,-166.2 326.5,-160.2 332.5,-154.2 338.5,-154.2 338.5,-154.2 398.5,-154.2 398.5,-154.2 404.5,-154.2 410.5,-160.2 410.5,-166.2 410.5,-166.2 410.5,-178.2 410.5,-178.2 410.5,-184.2 404.5,-190.2 398.5,-190.2"/>
<text text-anchor="middle" x="368.5" y="-168.5" font-family="Helvetica,sans-Serif" font-size="14.00">person/[&#39;A&#39;]</text>
</g>
<!-- R2&#45;&gt;person/[&#39;A&#39;] -->
<g id="edge10" class="edge">
<title>R2&#45;&gt;person/[&#39;A&#39;]</title>
<path fill="none" stroke="#b26e37" d="M368.5,-117.42C368.5,-125.68 368.5,-135.24 368.5,-143.99"/>
<polygon fill="#b26e37" stroke="#b26e37" points="365,-144.11 368.5,-154.11 372,-144.11 365,-144.11"/>
</g>
<!-- R4 -->
<g id="node11" class="node">
<title>R4</title>
<g id="a_node11"><a xlink:title="(4, &#39;has_father_mother(A) :&#45; person(A); father(_,A); mother(_,A).&#39;)">
<ellipse fill="#ccffcc" stroke="black" cx="477.5" cy="-249.29" rx="22.2" ry="22.2"/>
<text text-anchor="middle" x="477.5" y="-245.59" font-family="Helvetica,sans-Serif" font-size="14.00">R4</text>
</a>
</g>
</g>
<!-- person/[&#39;A&#39;]&#45;&gt;R4 -->
<g id="edge8" class="edge">
<title>person/[&#39;A&#39;]&#45;&gt;R4</title>
<path fill="none" stroke="#b26e37" d="M393.23,-190.24C410.46,-202.1 433.4,-217.91 451,-230.04"/>
<polygon fill="#b26e37" stroke="#b26e37" points="449.43,-233.21 459.66,-236 453.41,-227.44 449.43,-233.21"/>
</g>
<!-- R5 -->
<g id="node12" class="node">
<title>R5</title>
<g id="a_node12"><a xlink:title="(5, &#39;icv_person_has_father_mother(A) :&#45; person(A); not has_father_mother(A).&#39;)">
<ellipse fill="#ccffcc" stroke="black" cx="385.5" cy="-417.49" rx="22.2" ry="22.2"/>
<text text-anchor="middle" x="385.5" y="-413.79" font-family="Helvetica,sans-Serif" font-size="14.00">R5</text>
</a>
</g>
</g>
<!-- person/[&#39;A&#39;]&#45;&gt;R5 -->
<g id="edge9" class="edge">
<title>person/[&#39;A&#39;]&#45;&gt;R5</title>
<path fill="none" stroke="#b26e37" d="M369.7,-190.3C372.52,-230.8 379.67,-333 383.3,-385.02"/>
<polygon fill="#b26e37" stroke="#b26e37" points="379.83,-385.59 384.02,-395.32 386.82,-385.1 379.83,-385.59"/>
</g>
<!-- has_father_mother/[&#39;A&#39;] -->
<g id="node16" class="node">
<title>has_father_mother/[&#39;A&#39;]</title>
<path fill="#ffffcc" stroke="black" d="M544,-344.39C544,-344.39 411,-344.39 411,-344.39 405,-344.39 399,-338.39 399,-332.39 399,-332.39 399,-320.39 399,-320.39 399,-314.39 405,-308.39 411,-308.39 411,-308.39 544,-308.39 544,-308.39 550,-308.39 556,-314.39 556,-320.39 556,-320.39 556,-332.39 556,-332.39 556,-338.39 550,-344.39 544,-344.39"/>
<text text-anchor="middle" x="477.5" y="-322.69" font-family="Helvetica,sans-Serif" font-size="14.00">has_father_mother/[&#39;A&#39;]</text>
</g>
<!-- R4&#45;&gt;has_father_mother/[&#39;A&#39;] -->
<g id="edge14" class="edge">
<title>R4&#45;&gt;has_father_mother/[&#39;A&#39;]</title>
<path fill="none" stroke="#b26e37" d="M477.5,-271.61C477.5,-279.88 477.5,-289.44 477.5,-298.18"/>
<polygon fill="#b26e37" stroke="#b26e37" points="474,-298.31 477.5,-308.31 481,-298.31 474,-298.31"/>
</g>
<!-- icv_person_has_father_mother/[&#39;A&#39;] -->
<g id="node19" class="node">
<title>icv_person_has_father_mother/[&#39;A&#39;]</title>
<path fill="#ffffcc" stroke="black" d="M488.5,-512.59C488.5,-512.59 282.5,-512.59 282.5,-512.59 276.5,-512.59 270.5,-506.59 270.5,-500.59 270.5,-500.59 270.5,-488.59 270.5,-488.59 270.5,-482.59 276.5,-476.59 282.5,-476.59 282.5,-476.59 488.5,-476.59 488.5,-476.59 494.5,-476.59 500.5,-482.59 500.5,-488.59 500.5,-488.59 500.5,-500.59 500.5,-500.59 500.5,-506.59 494.5,-512.59 488.5,-512.59"/>
<text text-anchor="middle" x="385.5" y="-490.89" font-family="Helvetica,sans-Serif" font-size="14.00">icv_person_has_father_mother/[&#39;A&#39;]</text>
</g>
<!-- R5&#45;&gt;icv_person_has_father_mother/[&#39;A&#39;] -->
<g id="edge17" class="edge">
<title>R5&#45;&gt;icv_person_has_father_mother/[&#39;A&#39;]</title>
<path fill="none" stroke="#b26e37" d="M385.5,-439.81C385.5,-448.07 385.5,-457.63 385.5,-466.38"/>
<polygon fill="#b26e37" stroke="#b26e37" points="382,-466.51 385.5,-476.51 389,-466.51 382,-466.51"/>
</g>
<!-- parent/[&#39;_&#39;, &#39;B&#39;] -->
<g id="node13" class="node">
<title>parent/[&#39;_&#39;, &#39;B&#39;]</title>
<path fill="#ffffcc" stroke="black" d="M751.5,-36C751.5,-36 673.5,-36 673.5,-36 667.5,-36 661.5,-30 661.5,-24 661.5,-24 661.5,-12 661.5,-12 661.5,-6 667.5,0 673.5,0 673.5,0 751.5,0 751.5,0 757.5,0 763.5,-6 763.5,-12 763.5,-12 763.5,-24 763.5,-24 763.5,-30 757.5,-36 751.5,-36"/>
<text text-anchor="middle" x="712.5" y="-14.3" font-family="Helvetica,sans-Serif" font-size="14.00">parent/[&#39;_&#39;, &#39;B&#39;]</text>
</g>
<!-- R3 -->
<g id="node14" class="node">
<title>R3</title>
<g id="a_node14"><a xlink:title="(3, &#39;person(B) :&#45; parent(_,B).&#39;)">
<ellipse fill="#ccffcc" stroke="black" cx="712.5" cy="-95.1" rx="22.2" ry="22.2"/>
<text text-anchor="middle" x="712.5" y="-91.4" font-family="Helvetica,sans-Serif" font-size="14.00">R3</text>
</a>
</g>
</g>
<!-- parent/[&#39;_&#39;, &#39;B&#39;]&#45;&gt;R3 -->
<g id="edge11" class="edge">
<title>parent/[&#39;_&#39;, &#39;B&#39;]&#45;&gt;R3</title>
<path fill="none" stroke="#b26e37" d="M712.5,-36.04C712.5,-43.96 712.5,-53.65 712.5,-62.81"/>
<polygon fill="#b26e37" stroke="#b26e37" points="709,-62.83 712.5,-72.83 716,-62.83 709,-62.83"/>
</g>
<!-- person/[&#39;B&#39;] -->
<g id="node15" class="node">
<title>person/[&#39;B&#39;]</title>
<path fill="#ffffcc" stroke="black" d="M742.5,-190.2C742.5,-190.2 682.5,-190.2 682.5,-190.2 676.5,-190.2 670.5,-184.2 670.5,-178.2 670.5,-178.2 670.5,-166.2 670.5,-166.2 670.5,-160.2 676.5,-154.2 682.5,-154.2 682.5,-154.2 742.5,-154.2 742.5,-154.2 748.5,-154.2 754.5,-160.2 754.5,-166.2 754.5,-166.2 754.5,-178.2 754.5,-178.2 754.5,-184.2 748.5,-190.2 742.5,-190.2"/>
<text text-anchor="middle" x="712.5" y="-168.5" font-family="Helvetica,sans-Serif" font-size="14.00">person/[&#39;B&#39;]</text>
</g>
<!-- R3&#45;&gt;person/[&#39;B&#39;] -->
<g id="edge12" class="edge">
<title>R3&#45;&gt;person/[&#39;B&#39;]</title>
<path fill="none" stroke="#b26e37" d="M712.5,-117.42C712.5,-125.68 712.5,-135.24 712.5,-143.99"/>
<polygon fill="#b26e37" stroke="#b26e37" points="709,-144.11 712.5,-154.11 716,-144.11 709,-144.11"/>
</g>
<!-- has_father_mother/[&#39;A&#39;]&#45;&gt;R5 -->
<g id="edge13" class="edge">
<title>has_father_mother/[&#39;A&#39;]&#45;&gt;R5</title>
<path fill="none" stroke="#cd0000" stroke-width="1.8" stroke-dasharray="5,2" d="M459.76,-344.57C445.13,-358.74 424.28,-378.93 408.39,-394.32"/>
<polygon fill="#cd0000" stroke="#cd0000" stroke-width="1.8" points="405.79,-391.97 401.04,-401.44 410.66,-397 405.79,-391.97"/>
<text text-anchor="middle" x="450" y="-366.19" font-family="Palatino Linotype,serif" font-style="italic" font-size="14.00" fill="#cd0000">not</text>
</g>
<!-- father/[&#39;_&#39;, &#39;A&#39;] -->
<g id="node17" class="node">
<title>father/[&#39;_&#39;, &#39;A&#39;]</title>
<path fill="#ffffcc" stroke="black" d="M514.5,-190.2C514.5,-190.2 440.5,-190.2 440.5,-190.2 434.5,-190.2 428.5,-184.2 428.5,-178.2 428.5,-178.2 428.5,-166.2 428.5,-166.2 428.5,-160.2 434.5,-154.2 440.5,-154.2 440.5,-154.2 514.5,-154.2 514.5,-154.2 520.5,-154.2 526.5,-160.2 526.5,-166.2 526.5,-166.2 526.5,-178.2 526.5,-178.2 526.5,-184.2 520.5,-190.2 514.5,-190.2"/>
<text text-anchor="middle" x="477.5" y="-168.5" font-family="Helvetica,sans-Serif" font-size="14.00">father/[&#39;_&#39;, &#39;A&#39;]</text>
</g>
<!-- father/[&#39;_&#39;, &#39;A&#39;]&#45;&gt;R4 -->
<g id="edge15" class="edge">
<title>father/[&#39;_&#39;, &#39;A&#39;]&#45;&gt;R4</title>
<path fill="none" stroke="#b26e37" d="M477.5,-190.24C477.5,-198.16 477.5,-207.84 477.5,-217.01"/>
<polygon fill="#b26e37" stroke="#b26e37" points="474,-217.02 477.5,-227.02 481,-217.02 474,-217.02"/>
</g>
<!-- mother/[&#39;_&#39;, &#39;A&#39;] -->
<g id="node18" class="node">
<title>mother/[&#39;_&#39;, &#39;A&#39;]</title>
<path fill="#ffffcc" stroke="black" d="M640,-190.2C640,-190.2 557,-190.2 557,-190.2 551,-190.2 545,-184.2 545,-178.2 545,-178.2 545,-166.2 545,-166.2 545,-160.2 551,-154.2 557,-154.2 557,-154.2 640,-154.2 640,-154.2 646,-154.2 652,-160.2 652,-166.2 652,-166.2 652,-178.2 652,-178.2 652,-184.2 646,-190.2 640,-190.2"/>
<text text-anchor="middle" x="598.5" y="-168.5" font-family="Helvetica,sans-Serif" font-size="14.00">mother/[&#39;_&#39;, &#39;A&#39;]</text>
</g>
<!-- mother/[&#39;_&#39;, &#39;A&#39;]&#45;&gt;R4 -->
<g id="edge16" class="edge">
<title>mother/[&#39;_&#39;, &#39;A&#39;]&#45;&gt;R4</title>
<path fill="none" stroke="#b26e37" d="M571.04,-190.24C551.09,-202.62 524.22,-219.3 504.4,-231.6"/>
<polygon fill="#b26e37" stroke="#b26e37" points="502.49,-228.67 495.83,-236.92 506.18,-234.62 502.49,-228.67"/>
</g>
</g>
</svg>
