<?xml version="1.0" encoding="UTF-8" standalone="no"?>
<!DOCTYPE svg PUBLIC "-//W3C//DTD SVG 1.1//EN"
 "http://www.w3.org/Graphics/SVG/1.1/DTD/svg11.dtd">
<!-- Generated by graphviz version 6.0.1 (20220911.1526)
 -->
<!-- Pages: 1 -->
<svg width="730pt" height="1752pt"
 viewBox="0.00 0.00 730.00 1751.54" xmlns="http://www.w3.org/2000/svg" xmlns:xlink="http://www.w3.org/1999/xlink">
<g id="graph0" class="graph" transform="scale(1 1) rotate(0) translate(4 1747.54)">
<polygon fill="white" stroke="none" points="-4,4 -4,-1747.54 726,-1747.54 726,4 -4,4"/>
<!-- m/2 -->
<g id="node1" class="node">
<title>m/2</title>
<path fill="#ffffcc" stroke="black" d="M524,-36C524,-36 494,-36 494,-36 488,-36 482,-30 482,-24 482,-24 482,-12 482,-12 482,-6 488,0 494,0 494,0 524,0 524,0 530,0 536,-6 536,-12 536,-12 536,-24 536,-24 536,-30 530,-36 524,-36"/>
<text text-anchor="middle" x="509" y="-14.3" font-family="Helvetica,sans-Serif" font-size="14.00">m/2</text>
</g>
<!-- R0 -->
<g id="node2" class="node">
<title>R0</title>
<g id="a_node2"><a xlink:title="(0, &#39;p(X) :&#45; m(X,_).&#39;)">
<ellipse fill="#ccffcc" stroke="black" cx="534" cy="-95.1" rx="22.2" ry="22.2"/>
<text text-anchor="middle" x="534" y="-91.4" font-family="Helvetica,sans-Serif" font-size="14.00">R0</text>
</a>
</g>
</g>
<!-- m/2&#45;&gt;R0 -->
<g id="edge1" class="edge">
<title>m/2&#45;&gt;R0</title>
<path fill="none" stroke="#b26e37" d="M514.67,-36.04C517.45,-44.39 520.88,-54.69 524.08,-64.29"/>
<polygon fill="#b26e37" stroke="#b26e37" points="520.81,-65.54 527.29,-73.93 527.45,-63.33 520.81,-65.54"/>
</g>
<!-- R1 -->
<g id="node3" class="node">
<title>R1</title>
<g id="a_node3"><a xlink:title="(1, &#39;p(X) :&#45; m(_,X).&#39;)">
<ellipse fill="#ccffcc" stroke="black" cx="596" cy="-95.1" rx="22.2" ry="22.2"/>
<text text-anchor="middle" x="596" y="-91.4" font-family="Helvetica,sans-Serif" font-size="14.00">R1</text>
</a>
</g>
</g>
<!-- m/2&#45;&gt;R1 -->
<g id="edge2" class="edge">
<title>m/2&#45;&gt;R1</title>
<path fill="none" stroke="#b26e37" d="M528.74,-36.04C541.57,-47.11 558.36,-61.61 571.96,-73.35"/>
<polygon fill="#b26e37" stroke="#b26e37" points="569.69,-76.01 579.55,-79.9 574.27,-70.71 569.69,-76.01"/>
</g>
<!-- R2 -->
<g id="node4" class="node">
<title>R2</title>
<g id="a_node4"><a xlink:title="(2, &#39;u(S1,X) :&#45; m(X,Y); not o(S,Y); nxt(S,S1).&#39;)">
<ellipse fill="#ccffcc" stroke="black" cx="358" cy="-95.1" rx="22.2" ry="22.2"/>
<text text-anchor="middle" x="358" y="-91.4" font-family="Helvetica,sans-Serif" font-size="14.00">R2</text>
</a>
</g>
</g>
<!-- m/2&#45;&gt;R2 -->
<g id="edge3" class="edge">
<title>m/2&#45;&gt;R2</title>
<path fill="none" stroke="#b26e37" d="M481.7,-30.85C466.88,-37.43 448.3,-45.89 432,-54 416.59,-61.67 399.69,-70.77 385.93,-78.36"/>
<polygon fill="#b26e37" stroke="#b26e37" points="384.01,-75.43 376.97,-83.34 387.41,-81.54 384.01,-75.43"/>
</g>
<!-- R3 -->
<g id="node5" class="node">
<title>R3</title>
<g id="a_node5"><a xlink:title="(3, &#39;o(S,X) :&#45; m(X,Y); not u(S,Y); nxt(S,_).&#39;)">
<ellipse fill="#ccffcc" stroke="black" cx="338" cy="-910.42" rx="22.2" ry="22.2"/>
<text text-anchor="middle" x="338" y="-906.72" font-family="Helvetica,sans-Serif" font-size="14.00">R3</text>
</a>
</g>
</g>
<!-- m/2&#45;&gt;R3 -->
<g id="edge4" class="edge">
<title>m/2&#45;&gt;R3</title>
<path fill="none" stroke="#b26e37" d="M482.65,-36.04C465.38,-49.47 446,-69.93 446,-94.1 446,-94.1 446,-94.1 446,-676.48 446,-759.08 389.4,-844.16 358.15,-884.84"/>
<polygon fill="#b26e37" stroke="#b26e37" points="355.31,-882.8 351.9,-892.83 360.82,-887.12 355.31,-882.8"/>
</g>
<!-- R18 -->
<g id="node6" class="node">
<title>R18</title>
<g id="a_node6"><a xlink:title="(18, &#39;outn(gr,S1,X,Y) :&#45; m(X,Y); nxt(S,S1); g(X); fr(S,Y).&#39;)">
<ellipse fill="#ccffcc" stroke="black" cx="182" cy="-1251.01" rx="26.8" ry="26.8"/>
<text text-anchor="middle" x="182" y="-1247.31" font-family="Helvetica,sans-Serif" font-size="14.00">R18</text>
</a>
</g>
</g>
<!-- m/2&#45;&gt;R18 -->
<g id="edge5" class="edge">
<title>m/2&#45;&gt;R18</title>
<path fill="none" stroke="#b26e37" d="M481.99,-20.43C381.9,-26.09 38,-48.81 38,-94.1 38,-94.1 38,-94.1 38,-676.48 38,-871.78 3.27,-932.7 75,-1114.36 92.55,-1158.8 129.68,-1200.45 155.23,-1225.58"/>
<polygon fill="#b26e37" stroke="#b26e37" points="152.81,-1228.1 162.43,-1232.52 157.67,-1223.06 152.81,-1228.1"/>
</g>
<!-- R19 -->
<g id="node7" class="node">
<title>R19</title>
<g id="a_node7"><a xlink:title="(19, &#39;outn(rg,S,X,Y) :&#45; m(X,Y); r(X); fg(S,Y).&#39;)">
<ellipse fill="#ccffcc" stroke="black" cx="127" cy="-1480.6" rx="26.8" ry="26.8"/>
<text text-anchor="middle" x="127" y="-1476.9" font-family="Helvetica,sans-Serif" font-size="14.00">R19</text>
</a>
</g>
</g>
<!-- m/2&#45;&gt;R19 -->
<g id="edge6" class="edge">
<title>m/2&#45;&gt;R19</title>
<path fill="none" stroke="#b26e37" d="M481.99,-20.11C376.76,-24.77 0,-44.91 0,-94.1 0,-94.1 0,-94.1 0,-676.48 0,-977.29 88,-1333.79 117.49,-1444.84"/>
<polygon fill="#b26e37" stroke="#b26e37" points="114.12,-1445.75 120.08,-1454.51 120.88,-1443.94 114.12,-1445.75"/>
</g>
<!-- R20 -->
<g id="node8" class="node">
<title>R20</title>
<g id="a_node8"><a xlink:title="(20, &#39;out(gg,X,Y) :&#45; m(X,Y); g(X); g(Y).&#39;)">
<ellipse fill="#ccffcc" stroke="black" cx="439" cy="-1251.01" rx="26.8" ry="26.8"/>
<text text-anchor="middle" x="439" y="-1247.31" font-family="Helvetica,sans-Serif" font-size="14.00">R20</text>
</a>
</g>
</g>
<!-- m/2&#45;&gt;R20 -->
<g id="edge7" class="edge">
<title>m/2&#45;&gt;R20</title>
<path fill="none" stroke="#b26e37" d="M499.83,-36.07C492.7,-50.95 484,-73.35 484,-94.1 484,-94.1 484,-94.1 484,-956.06 484,-1050.64 460.96,-1160.38 447.85,-1215.15"/>
<polygon fill="#b26e37" stroke="#b26e37" points="444.41,-1214.5 445.45,-1225.04 451.21,-1216.15 444.41,-1214.5"/>
</g>
<!-- R21 -->
<g id="node9" class="node">
<title>R21</title>
<g id="a_node9"><a xlink:title="(21, &#39;out(gy,X,Y) :&#45; m(X,Y); g(X); y(Y).&#39;)">
<ellipse fill="#ccffcc" stroke="black" cx="533" cy="-1643.89" rx="26.8" ry="26.8"/>
<text text-anchor="middle" x="533" y="-1640.19" font-family="Helvetica,sans-Serif" font-size="14.00">R21</text>
</a>
</g>
</g>
<!-- m/2&#45;&gt;R21 -->
<g id="edge8" class="edge">
<title>m/2&#45;&gt;R21</title>
<path fill="none" stroke="#b26e37" d="M536.07,-21.73C575.99,-27.41 646,-44.46 646,-94.1 646,-94.1 646,-94.1 646,-1323.3 646,-1440.67 637.42,-1475.23 585,-1580.25 578.36,-1593.55 568.4,-1606.5 558.96,-1617.13"/>
<polygon fill="#b26e37" stroke="#b26e37" points="556.12,-1615.06 551.92,-1624.79 561.27,-1619.8 556.12,-1615.06"/>
</g>
<!-- R22 -->
<g id="node10" class="node">
<title>R22</title>
<g id="a_node10"><a xlink:title="(22, &#39;out(yg,X,Y) :&#45; m(X,Y); y(X); g(Y).&#39;)">
<ellipse fill="#ccffcc" stroke="black" cx="679" cy="-1643.89" rx="26.8" ry="26.8"/>
<text text-anchor="middle" x="679" y="-1640.19" font-family="Helvetica,sans-Serif" font-size="14.00">R22</text>
</a>
</g>
</g>
<!-- m/2&#45;&gt;R22 -->
<g id="edge9" class="edge">
<title>m/2&#45;&gt;R22</title>
<path fill="none" stroke="#b26e37" d="M536.01,-19.95C571.07,-22.17 633.28,-29.56 680,-54 702.87,-65.96 722,-68.29 722,-94.1 722,-94.1 722,-94.1 722,-1563.25 722,-1581.98 712.67,-1600.55 702.7,-1615.03"/>
<polygon fill="#b26e37" stroke="#b26e37" points="699.59,-1613.36 696.49,-1623.49 705.23,-1617.5 699.59,-1613.36"/>
</g>
<!-- R23 -->
<g id="node11" class="node">
<title>R23</title>
<g id="a_node11"><a xlink:title="(23, &#39;out(yy,X,Y) :&#45; m(X,Y); y(X); y(Y).&#39;)">
<ellipse fill="#ccffcc" stroke="black" cx="604" cy="-1643.89" rx="26.8" ry="26.8"/>
<text text-anchor="middle" x="604" y="-1640.19" font-family="Helvetica,sans-Serif" font-size="14.00">R23</text>
</a>
</g>
</g>
<!-- m/2&#45;&gt;R23 -->
<g id="edge10" class="edge">
<title>m/2&#45;&gt;R23</title>
<path fill="none" stroke="#b26e37" d="M536.34,-18.83C585.56,-20.12 684,-30.62 684,-94.1 684,-94.1 684,-94.1 684,-1429.45 684,-1498.29 647.06,-1572.13 623.39,-1612.38"/>
<polygon fill="#b26e37" stroke="#b26e37" points="620.26,-1610.79 618.12,-1621.16 626.26,-1614.39 620.26,-1610.79"/>
</g>
<!-- p/1 -->
<g id="node12" class="node">
<title>p/1</title>
<path fill="#ffffcc" stroke="black" d="M583,-190.2C583,-190.2 553,-190.2 553,-190.2 547,-190.2 541,-184.2 541,-178.2 541,-178.2 541,-166.2 541,-166.2 541,-160.2 547,-154.2 553,-154.2 553,-154.2 583,-154.2 583,-154.2 589,-154.2 595,-160.2 595,-166.2 595,-166.2 595,-178.2 595,-178.2 595,-184.2 589,-190.2 583,-190.2"/>
<text text-anchor="middle" x="568" y="-168.5" font-family="Helvetica,sans-Serif" font-size="14.00">p/1</text>
</g>
<!-- R0&#45;&gt;p/1 -->
<g id="edge13" class="edge">
<title>R0&#45;&gt;p/1</title>
<path fill="none" stroke="#b26e37" d="M542.76,-115.44C546.77,-124.3 551.59,-134.96 555.94,-144.56"/>
<polygon fill="#b26e37" stroke="#b26e37" points="552.77,-146.05 560.09,-153.72 559.15,-143.17 552.77,-146.05"/>
</g>
<!-- R1&#45;&gt;p/1 -->
<g id="edge14" class="edge">
<title>R1&#45;&gt;p/1</title>
<path fill="none" stroke="#b26e37" d="M588.5,-116.22C585.26,-124.9 581.43,-135.18 577.96,-144.48"/>
<polygon fill="#b26e37" stroke="#b26e37" points="574.6,-143.48 574.38,-154.07 581.16,-145.93 574.6,-143.48"/>
</g>
<!-- u/2 -->
<g id="node15" class="node">
<title>u/2</title>
<path fill="#ffffcc" stroke="black" d="M330,-190.2C330,-190.2 300,-190.2 300,-190.2 294,-190.2 288,-184.2 288,-178.2 288,-178.2 288,-166.2 288,-166.2 288,-160.2 294,-154.2 300,-154.2 300,-154.2 330,-154.2 330,-154.2 336,-154.2 342,-160.2 342,-166.2 342,-166.2 342,-178.2 342,-178.2 342,-184.2 336,-190.2 330,-190.2"/>
<text text-anchor="middle" x="315" y="-168.5" font-family="Helvetica,sans-Serif" font-size="14.00">u/2</text>
</g>
<!-- R2&#45;&gt;u/2 -->
<g id="edge17" class="edge">
<title>R2&#45;&gt;u/2</title>
<path fill="none" stroke="#b26e37" d="M347.37,-114.66C342.08,-123.91 335.59,-135.23 329.82,-145.32"/>
<polygon fill="#b26e37" stroke="#b26e37" points="326.7,-143.71 324.77,-154.13 332.78,-147.19 326.7,-143.71"/>
</g>
<!-- o/2 -->
<g id="node17" class="node">
<title>o/2</title>
<path fill="#ffffcc" stroke="black" d="M357,-1010.06C357,-1010.06 327,-1010.06 327,-1010.06 321,-1010.06 315,-1004.06 315,-998.06 315,-998.06 315,-986.06 315,-986.06 315,-980.06 321,-974.06 327,-974.06 327,-974.06 357,-974.06 357,-974.06 363,-974.06 369,-980.06 369,-986.06 369,-986.06 369,-998.06 369,-998.06 369,-1004.06 363,-1010.06 357,-1010.06"/>
<text text-anchor="middle" x="342" y="-988.36" font-family="Helvetica,sans-Serif" font-size="14.00">o/2</text>
</g>
<!-- R3&#45;&gt;o/2 -->
<g id="edge27" class="edge">
<title>R3&#45;&gt;o/2</title>
<path fill="none" stroke="#b26e37" d="M339.07,-932.76C339.55,-942.34 340.13,-953.74 340.64,-963.92"/>
<polygon fill="#b26e37" stroke="#b26e37" points="337.14,-964.14 341.14,-973.95 344.13,-963.78 337.14,-964.14"/>
</g>
<!-- outn/4 -->
<g id="node36" class="node">
<title>outn/4</title>
<path fill="#ffffcc" stroke="black" d="M170,-1580.25C170,-1580.25 140,-1580.25 140,-1580.25 134,-1580.25 128,-1574.25 128,-1568.25 128,-1568.25 128,-1556.25 128,-1556.25 128,-1550.25 134,-1544.25 140,-1544.25 140,-1544.25 170,-1544.25 170,-1544.25 176,-1544.25 182,-1550.25 182,-1556.25 182,-1556.25 182,-1568.25 182,-1568.25 182,-1574.25 176,-1580.25 170,-1580.25"/>
<text text-anchor="middle" x="155" y="-1558.55" font-family="Helvetica,sans-Serif" font-size="14.00">outn/4</text>
</g>
<!-- R18&#45;&gt;outn/4 -->
<g id="edge62" class="edge">
<title>R18&#45;&gt;outn/4</title>
<path fill="none" stroke="#b26e37" d="M180.7,-1277.79C178.24,-1323.91 172.3,-1423.56 163,-1507.25 162.04,-1515.86 160.75,-1525.2 159.48,-1533.66"/>
<polygon fill="#b26e37" stroke="#b26e37" points="155.99,-1533.36 157.92,-1543.78 162.9,-1534.43 155.99,-1533.36"/>
</g>
<!-- R19&#45;&gt;outn/4 -->
<g id="edge63" class="edge">
<title>R19&#45;&gt;outn/4</title>
<path fill="none" stroke="#b26e37" d="M135.55,-1505.93C138.72,-1514.93 142.32,-1525.19 145.56,-1534.4"/>
<polygon fill="#b26e37" stroke="#b26e37" points="142.28,-1535.61 148.9,-1543.88 148.88,-1533.29 142.28,-1535.61"/>
</g>
<!-- out/3 -->
<g id="node37" class="node">
<title>out/3</title>
<path fill="#ffffcc" stroke="black" d="M583,-1743.54C583,-1743.54 553,-1743.54 553,-1743.54 547,-1743.54 541,-1737.54 541,-1731.54 541,-1731.54 541,-1719.54 541,-1719.54 541,-1713.54 547,-1707.54 553,-1707.54 553,-1707.54 583,-1707.54 583,-1707.54 589,-1707.54 595,-1713.54 595,-1719.54 595,-1719.54 595,-1731.54 595,-1731.54 595,-1737.54 589,-1743.54 583,-1743.54"/>
<text text-anchor="middle" x="568" y="-1721.84" font-family="Helvetica,sans-Serif" font-size="14.00">out/3</text>
</g>
<!-- R20&#45;&gt;out/3 -->
<g id="edge64" class="edge">
<title>R20&#45;&gt;out/3</title>
<path fill="none" stroke="#b26e37" d="M423.97,-1273.28C407.69,-1298.46 384,-1342.26 384,-1383.95 384,-1383.95 384,-1383.95 384,-1644.89 384,-1708.2 476.87,-1721.76 530.65,-1724.3"/>
<polygon fill="#b26e37" stroke="#b26e37" points="530.73,-1727.8 540.85,-1724.67 530.98,-1720.81 530.73,-1727.8"/>
</g>
<!-- R21&#45;&gt;out/3 -->
<g id="edge65" class="edge">
<title>R21&#45;&gt;out/3</title>
<path fill="none" stroke="#b26e37" d="M543.5,-1668.79C547.57,-1678.04 552.23,-1688.66 556.4,-1698.14"/>
<polygon fill="#b26e37" stroke="#b26e37" points="553.28,-1699.74 560.51,-1707.49 559.69,-1696.93 553.28,-1699.74"/>
</g>
<!-- R22&#45;&gt;out/3 -->
<g id="edge66" class="edge">
<title>R22&#45;&gt;out/3</title>
<path fill="none" stroke="#b26e37" d="M657.6,-1660.25C641.32,-1671.93 618.65,-1688.2 600.18,-1701.45"/>
<polygon fill="#b26e37" stroke="#b26e37" points="598.12,-1698.62 592.03,-1707.3 602.2,-1704.31 598.12,-1698.62"/>
</g>
<!-- R23&#45;&gt;out/3 -->
<g id="edge67" class="edge">
<title>R23&#45;&gt;out/3</title>
<path fill="none" stroke="#b26e37" d="M593.39,-1668.36C589.16,-1677.72 584.27,-1688.54 579.92,-1698.17"/>
<polygon fill="#b26e37" stroke="#b26e37" points="576.72,-1696.75 575.79,-1707.31 583.1,-1699.64 576.72,-1696.75"/>
</g>
<!-- R5 -->
<g id="node13" class="node">
<title>R5</title>
<g id="a_node13"><a xlink:title="(5, &#39;y(X) :&#45; p(X); not g(X); not r(X).&#39;)">
<ellipse fill="#ccffcc" stroke="black" cx="546" cy="-1480.6" rx="22.2" ry="22.2"/>
<text text-anchor="middle" x="546" y="-1476.9" font-family="Helvetica,sans-Serif" font-size="14.00">R5</text>
</a>
</g>
</g>
<!-- p/1&#45;&gt;R5 -->
<g id="edge11" class="edge">
<title>p/1&#45;&gt;R5</title>
<path fill="none" stroke="#b26e37" d="M580.22,-190.22C591.98,-208.31 608,-238.2 608,-266.84 608,-266.84 608,-266.84 608,-1385.95 608,-1414.53 587.68,-1441.08 570.31,-1458.55"/>
<polygon fill="#b26e37" stroke="#b26e37" points="567.42,-1456.48 562.61,-1465.92 572.26,-1461.53 567.42,-1456.48"/>
</g>
<!-- R13 -->
<g id="node14" class="node">
<title>R13</title>
<g id="a_node14"><a xlink:title="(13, &#39;fr(0,X) :&#45; p(X); not o(0,X).&#39;)">
<ellipse fill="#ccffcc" stroke="black" cx="546" cy="-339.14" rx="26.8" ry="26.8"/>
<text text-anchor="middle" x="546" y="-335.44" font-family="Helvetica,sans-Serif" font-size="14.00">R13</text>
</a>
</g>
</g>
<!-- p/1&#45;&gt;R13 -->
<g id="edge12" class="edge">
<title>p/1&#45;&gt;R13</title>
<path fill="none" stroke="#b26e37" d="M565.73,-190.23C562.22,-216.56 555.39,-267.73 550.76,-302.42"/>
<polygon fill="#b26e37" stroke="#b26e37" points="547.26,-302.24 549.4,-312.61 554.2,-303.16 547.26,-302.24"/>
</g>
<!-- y/1 -->
<g id="node27" class="node">
<title>y/1</title>
<path fill="#ffffcc" stroke="black" d="M564,-1580.25C564,-1580.25 534,-1580.25 534,-1580.25 528,-1580.25 522,-1574.25 522,-1568.25 522,-1568.25 522,-1556.25 522,-1556.25 522,-1550.25 528,-1544.25 534,-1544.25 534,-1544.25 564,-1544.25 564,-1544.25 570,-1544.25 576,-1550.25 576,-1556.25 576,-1556.25 576,-1568.25 576,-1568.25 576,-1574.25 570,-1580.25 564,-1580.25"/>
<text text-anchor="middle" x="549" y="-1558.55" font-family="Helvetica,sans-Serif" font-size="14.00">y/1</text>
</g>
<!-- R5&#45;&gt;y/1 -->
<g id="edge42" class="edge">
<title>R5&#45;&gt;y/1</title>
<path fill="none" stroke="#b26e37" d="M546.8,-1502.94C547.16,-1512.52 547.59,-1523.93 547.98,-1534.1"/>
<polygon fill="#b26e37" stroke="#b26e37" points="544.48,-1534.27 548.36,-1544.13 551.48,-1534 544.48,-1534.27"/>
</g>
<!-- fr/2 -->
<g id="node30" class="node">
<title>fr/2</title>
<path fill="#ffffcc" stroke="black" d="M337,-1187.36C337,-1187.36 307,-1187.36 307,-1187.36 301,-1187.36 295,-1181.36 295,-1175.36 295,-1175.36 295,-1163.36 295,-1163.36 295,-1157.36 301,-1151.36 307,-1151.36 307,-1151.36 337,-1151.36 337,-1151.36 343,-1151.36 349,-1157.36 349,-1163.36 349,-1163.36 349,-1175.36 349,-1175.36 349,-1181.36 343,-1187.36 337,-1187.36"/>
<text text-anchor="middle" x="322" y="-1165.66" font-family="Helvetica,sans-Serif" font-size="14.00">fr/2</text>
</g>
<!-- R13&#45;&gt;fr/2 -->
<g id="edge57" class="edge">
<title>R13&#45;&gt;fr/2</title>
<path fill="none" stroke="#b26e37" d="M536.65,-364.21C529.91,-383.74 522,-412.12 522,-437.79 522,-437.79 522,-437.79 522,-956.06 522,-1050.32 416.27,-1119.74 358.55,-1150.62"/>
<polygon fill="#b26e37" stroke="#b26e37" points="356.63,-1147.67 349.39,-1155.41 359.87,-1153.88 356.63,-1147.67"/>
</g>
<!-- u/2&#45;&gt;R3 -->
<g id="edge15" class="edge">
<title>u/2&#45;&gt;R3</title>
<path fill="none" stroke="#cd0000" stroke-width="1.8" stroke-dasharray="5,2" d="M318.83,-190.36C322.66,-209.06 328,-239.92 328,-266.84 328,-266.84 328,-266.84 328,-829.77 328,-845.92 330.05,-863.77 332.29,-878.47"/>
<polygon fill="#cd0000" stroke="#cd0000" stroke-width="1.8" points="328.87,-879.24 333.93,-888.54 335.78,-878.11 328.87,-879.24"/>
<text text-anchor="middle" x="337.5" y="-551.03" font-family="Palatino Linotype,serif" font-style="italic" font-size="14.00" fill="#cd0000">not</text>
</g>
<!-- R12 -->
<g id="node16" class="node">
<title>R12</title>
<g id="a_node16"><a xlink:title="(12, &#39;fg(S1,X) :&#45; nxt(S,S1); u(S1,X); not u(S,X).&#39;)">
<ellipse fill="#ccffcc" stroke="black" cx="270" cy="-267.84" rx="26.8" ry="26.8"/>
<text text-anchor="middle" x="270" y="-264.14" font-family="Helvetica,sans-Serif" font-size="14.00">R12</text>
</a>
</g>
</g>
<!-- u/2&#45;&gt;R12 -->
<g id="edge16" class="edge">
<title>u/2&#45;&gt;R12</title>
<path fill="none" stroke="#cd0000" stroke-width="1.8" stroke-dasharray="5,2" d="M304.63,-190.43C301.4,-196.02 297.93,-202.3 295,-208.2 291,-216.25 287.02,-225.09 283.45,-233.42"/>
<polygon fill="#cd0000" stroke="#cd0000" stroke-width="1.8" points="280.13,-232.3 279.48,-242.87 286.58,-235.01 280.13,-232.3"/>
<text text-anchor="middle" x="304.5" y="-212" font-family="Palatino Linotype,serif" font-style="italic" font-size="14.00" fill="#cd0000">not</text>
</g>
<!-- fg/2 -->
<g id="node22" class="node">
<title>fg/2</title>
<path fill="#ffffcc" stroke="black" d="M230,-419.79C230,-419.79 200,-419.79 200,-419.79 194,-419.79 188,-413.79 188,-407.79 188,-407.79 188,-395.79 188,-395.79 188,-389.79 194,-383.79 200,-383.79 200,-383.79 230,-383.79 230,-383.79 236,-383.79 242,-389.79 242,-395.79 242,-395.79 242,-407.79 242,-407.79 242,-413.79 236,-419.79 230,-419.79"/>
<text text-anchor="middle" x="215" y="-398.09" font-family="Helvetica,sans-Serif" font-size="14.00">fg/2</text>
</g>
<!-- R12&#45;&gt;fg/2 -->
<g id="edge56" class="edge">
<title>R12&#45;&gt;fg/2</title>
<path fill="none" stroke="#b26e37" d="M260.04,-292.74C250.45,-315.74 235.98,-350.46 226.04,-374.29"/>
<polygon fill="#b26e37" stroke="#b26e37" points="222.71,-373.2 222.09,-383.78 229.17,-375.9 222.71,-373.2"/>
</g>
<!-- o/2&#45;&gt;R2 -->
<g id="edge18" class="edge">
<title>o/2&#45;&gt;R2</title>
<path fill="none" stroke="#cd0000" stroke-width="1.8" stroke-dasharray="5,2" d="M353.17,-973.85C359.14,-963.62 365.89,-950.12 369,-937.06 395.83,-824.4 370,-792.29 370,-676.48 370,-171.2 370,-171.2 370,-171.2 370,-156.36 367.69,-140.08 365.09,-126.48"/>
<polygon fill="#cd0000" stroke="#cd0000" stroke-width="1.8" points="368.52,-125.77 363.09,-116.68 361.66,-127.17 368.52,-125.77"/>
<text text-anchor="middle" x="379.5" y="-551.03" font-family="Palatino Linotype,serif" font-style="italic" font-size="14.00" fill="#cd0000">not</text>
</g>
<!-- R14 -->
<g id="node18" class="node">
<title>R14</title>
<g id="a_node18"><a xlink:title="(14, &#39;fr(S1,X) :&#45; nxt(S,S1); o(S,X); not o(S1,X); not fin(S1).&#39;)">
<ellipse fill="#ccffcc" stroke="black" cx="322" cy="-1087.71" rx="26.8" ry="26.8"/>
<text text-anchor="middle" x="322" y="-1084.01" font-family="Helvetica,sans-Serif" font-size="14.00">R14</text>
</a>
</g>
</g>
<!-- o/2&#45;&gt;R14 -->
<g id="edge19" class="edge">
<title>o/2&#45;&gt;R14</title>
<path fill="none" stroke="#cd0000" stroke-width="1.8" stroke-dasharray="5,2" d="M338.33,-1010.24C335.86,-1021.8 332.52,-1037.45 329.5,-1051.58"/>
<polygon fill="#cd0000" stroke="#cd0000" stroke-width="1.8" points="326.05,-1051.01 327.38,-1061.52 332.89,-1052.48 326.05,-1051.01"/>
<text text-anchor="middle" x="344.5" y="-1031.86" font-family="Palatino Linotype,serif" font-style="italic" font-size="14.00" fill="#cd0000">not</text>
</g>
<!-- R14&#45;&gt;fr/2 -->
<g id="edge58" class="edge">
<title>R14&#45;&gt;fr/2</title>
<path fill="none" stroke="#b26e37" d="M322,-1114.79C322,-1123.21 322,-1132.57 322,-1141.08"/>
<polygon fill="#b26e37" stroke="#b26e37" points="318.5,-1141.26 322,-1151.26 325.5,-1141.26 318.5,-1141.26"/>
</g>
<!-- nxt/2 -->
<g id="node19" class="node">
<title>nxt/2</title>
<path fill="#ffffcc" stroke="black" d="M227,-846.77C227,-846.77 197,-846.77 197,-846.77 191,-846.77 185,-840.77 185,-834.77 185,-834.77 185,-822.77 185,-822.77 185,-816.77 191,-810.77 197,-810.77 197,-810.77 227,-810.77 227,-810.77 233,-810.77 239,-816.77 239,-822.77 239,-822.77 239,-834.77 239,-834.77 239,-840.77 233,-846.77 227,-846.77"/>
<text text-anchor="middle" x="212" y="-825.07" font-family="Helvetica,sans-Serif" font-size="14.00">nxt/2</text>
</g>
<!-- nxt/2&#45;&gt;R2 -->
<g id="edge20" class="edge">
<title>nxt/2&#45;&gt;R2</title>
<path fill="none" stroke="#b26e37" d="M184.81,-813.46C145.12,-790.38 76,-740.93 76,-676.48 76,-171.2 76,-171.2 76,-171.2 76,-120.01 251.69,-102.84 325.72,-97.88"/>
<polygon fill="#b26e37" stroke="#b26e37" points="326.11,-101.36 335.87,-97.23 325.67,-94.37 326.11,-101.36"/>
</g>
<!-- nxt/2&#45;&gt;R3 -->
<g id="edge21" class="edge">
<title>nxt/2&#45;&gt;R3</title>
<path fill="none" stroke="#b26e37" d="M239,-843.84C258.16,-854.17 284.23,-868.92 306,-883.77 308.43,-885.42 310.9,-887.21 313.35,-889.05"/>
<polygon fill="#b26e37" stroke="#b26e37" points="311.39,-891.96 321.43,-895.34 315.69,-886.43 311.39,-891.96"/>
</g>
<!-- nxt/2&#45;&gt;R18 -->
<g id="edge26" class="edge">
<title>nxt/2&#45;&gt;R18</title>
<path fill="none" stroke="#b26e37" d="M199.56,-846.85C189.5,-862.37 177,-886.31 177,-909.42 177,-909.42 177,-909.42 177,-1170.36 177,-1184.71 177.82,-1200.49 178.79,-1214.19"/>
<polygon fill="#b26e37" stroke="#b26e37" points="175.31,-1214.5 179.56,-1224.21 182.29,-1213.97 175.31,-1214.5"/>
</g>
<!-- nxt/2&#45;&gt;R12 -->
<g id="edge24" class="edge">
<title>nxt/2&#45;&gt;R12</title>
<path fill="none" stroke="#b26e37" d="M222.65,-810.41C225.69,-804.92 228.77,-798.73 231,-792.77 258.88,-718.4 270,-697.8 270,-618.38 270,-400.79 270,-400.79 270,-400.79 270,-368.37 270,-331.48 270,-304.96"/>
<polygon fill="#b26e37" stroke="#b26e37" points="273.5,-304.63 270,-294.63 266.5,-304.63 273.5,-304.63"/>
</g>
<!-- nxt/2&#45;&gt;R14 -->
<g id="edge25" class="edge">
<title>nxt/2&#45;&gt;R14</title>
<path fill="none" stroke="#b26e37" d="M210.2,-846.86C207.48,-880.35 205.33,-956.03 234,-1010.06 246.9,-1034.39 270.91,-1054.48 290.59,-1067.99"/>
<polygon fill="#b26e37" stroke="#b26e37" points="288.72,-1070.95 298.99,-1073.54 292.58,-1065.11 288.72,-1070.95"/>
</g>
<!-- R8 -->
<g id="node20" class="node">
<title>R8</title>
<g id="a_node20"><a xlink:title="(8, &#39;nxt(S,S1) :&#45; nxt(_,S); chg(S); S1 = (S+1).&#39;)">
<ellipse fill="#ccffcc" stroke="black" cx="202" cy="-737.67" rx="22.2" ry="22.2"/>
<text text-anchor="middle" x="202" y="-733.97" font-family="Helvetica,sans-Serif" font-size="14.00">R8</text>
</a>
</g>
</g>
<!-- nxt/2&#45;&gt;R8 -->
<g id="edge22" class="edge">
<title>nxt/2&#45;&gt;R8</title>
<path fill="none" stroke="#b26e37" d="M215.53,-810.75C215.51,-798.86 214.02,-782.67 211.78,-768.64"/>
<polygon fill="#b26e37" stroke="#b26e37" points="215.16,-767.66 209.94,-758.45 208.27,-768.91 215.16,-767.66"/>
</g>
<!-- R11 -->
<g id="node21" class="node">
<title>R11</title>
<g id="a_node21"><a xlink:title="(11, &#39;fin(S) :&#45; nxt(_,S); not chg(S).&#39;)">
<ellipse fill="#ccffcc" stroke="black" cx="270" cy="-910.42" rx="26.8" ry="26.8"/>
<text text-anchor="middle" x="270" y="-906.72" font-family="Helvetica,sans-Serif" font-size="14.00">R11</text>
</a>
</g>
</g>
<!-- nxt/2&#45;&gt;R11 -->
<g id="edge23" class="edge">
<title>nxt/2&#45;&gt;R11</title>
<path fill="none" stroke="#b26e37" d="M224.59,-847.05C231.65,-856.75 240.65,-869.11 248.77,-880.26"/>
<polygon fill="#b26e37" stroke="#b26e37" points="246.04,-882.47 254.76,-888.49 251.7,-878.34 246.04,-882.47"/>
</g>
<!-- R8&#45;&gt;nxt/2 -->
<g id="edge49" class="edge">
<title>R8&#45;&gt;nxt/2</title>
<path fill="none" stroke="#b26e37" d="M198.53,-759.79C198.85,-772.05 200.46,-787.62 202.71,-800.77"/>
<polygon fill="#b26e37" stroke="#b26e37" points="199.29,-801.54 204.63,-810.68 206.16,-800.2 199.29,-801.54"/>
</g>
<!-- fin/1 -->
<g id="node34" class="node">
<title>fin/1</title>
<path fill="#ffffcc" stroke="black" d="M285,-1010.06C285,-1010.06 255,-1010.06 255,-1010.06 249,-1010.06 243,-1004.06 243,-998.06 243,-998.06 243,-986.06 243,-986.06 243,-980.06 249,-974.06 255,-974.06 255,-974.06 285,-974.06 285,-974.06 291,-974.06 297,-980.06 297,-986.06 297,-986.06 297,-998.06 297,-998.06 297,-1004.06 291,-1010.06 285,-1010.06"/>
<text text-anchor="middle" x="270" y="-988.36" font-family="Helvetica,sans-Serif" font-size="14.00">fin/1</text>
</g>
<!-- R11&#45;&gt;fin/1 -->
<g id="edge55" class="edge">
<title>R11&#45;&gt;fin/1</title>
<path fill="none" stroke="#b26e37" d="M270,-937.5C270,-945.92 270,-955.27 270,-963.78"/>
<polygon fill="#b26e37" stroke="#b26e37" points="266.5,-963.97 270,-973.97 273.5,-963.97 266.5,-963.97"/>
</g>
<!-- fg/2&#45;&gt;R19 -->
<g id="edge31" class="edge">
<title>fg/2&#45;&gt;R19</title>
<path fill="none" stroke="#b26e37" d="M200.48,-420.15C192.85,-430.23 184.05,-443.52 179,-456.79 149.39,-534.59 127,-744.52 127,-827.77 127,-827.77 127,-827.77 127,-1385.95 127,-1404.93 127,-1426.08 127,-1443.47"/>
<polygon fill="#b26e37" stroke="#b26e37" points="123.5,-1443.76 127,-1453.76 130.5,-1443.76 123.5,-1443.76"/>
</g>
<!-- R4 -->
<g id="node23" class="node">
<title>R4</title>
<g id="a_node23"><a xlink:title="(4, &#39;g(X) :&#45; fg(_,X).&#39;)">
<ellipse fill="#ccffcc" stroke="black" cx="408" cy="-675.48" rx="22.2" ry="22.2"/>
<text text-anchor="middle" x="408" y="-671.78" font-family="Helvetica,sans-Serif" font-size="14.00">R4</text>
</a>
</g>
</g>
<!-- fg/2&#45;&gt;R4 -->
<g id="edge28" class="edge">
<title>fg/2&#45;&gt;R4</title>
<path fill="none" stroke="#b26e37" d="M242.31,-413.26C282.94,-430.44 358.24,-468.73 393,-528.08 413.67,-563.38 414.35,-611.8 411.96,-643.11"/>
<polygon fill="#b26e37" stroke="#b26e37" points="408.45,-643.14 411.02,-653.42 415.42,-643.78 408.45,-643.14"/>
</g>
<!-- R10 -->
<g id="node24" class="node">
<title>R10</title>
<g id="a_node24"><a xlink:title="(10, &#39;chg(S) :&#45; fg(S,_).&#39;)">
<ellipse fill="#ccffcc" stroke="black" cx="215" cy="-483.43" rx="26.8" ry="26.8"/>
<text text-anchor="middle" x="215" y="-479.73" font-family="Helvetica,sans-Serif" font-size="14.00">R10</text>
</a>
</g>
</g>
<!-- fg/2&#45;&gt;R10 -->
<g id="edge29" class="edge">
<title>fg/2&#45;&gt;R10</title>
<path fill="none" stroke="#b26e37" d="M215,-420.07C215,-427.85 215,-437.34 215,-446.54"/>
<polygon fill="#b26e37" stroke="#b26e37" points="211.5,-446.71 215,-456.71 218.5,-446.71 211.5,-446.71"/>
</g>
<!-- R15 -->
<g id="node25" class="node">
<title>R15</title>
<g id="a_node25"><a xlink:title="(15, &#39;node(g,S,X) :&#45; fg(S,X).&#39;)">
<ellipse fill="#ccffcc" stroke="black" cx="118" cy="-554.73" rx="26.8" ry="26.8"/>
<text text-anchor="middle" x="118" y="-551.03" font-family="Helvetica,sans-Serif" font-size="14.00">R15</text>
</a>
</g>
</g>
<!-- fg/2&#45;&gt;R15 -->
<g id="edge30" class="edge">
<title>fg/2&#45;&gt;R15</title>
<path fill="none" stroke="#b26e37" d="M187.81,-410.43C173.38,-415.83 156.5,-424.51 146,-437.79 128.02,-460.53 121.33,-493.07 118.96,-517.89"/>
<polygon fill="#b26e37" stroke="#b26e37" points="115.46,-517.77 118.19,-528.01 122.44,-518.3 115.46,-517.77"/>
</g>
<!-- g/1 -->
<g id="node26" class="node">
<title>g/1</title>
<path fill="#ffffcc" stroke="black" d="M514,-1187.36C514,-1187.36 484,-1187.36 484,-1187.36 478,-1187.36 472,-1181.36 472,-1175.36 472,-1175.36 472,-1163.36 472,-1163.36 472,-1157.36 478,-1151.36 484,-1151.36 484,-1151.36 514,-1151.36 514,-1151.36 520,-1151.36 526,-1157.36 526,-1163.36 526,-1163.36 526,-1175.36 526,-1175.36 526,-1181.36 520,-1187.36 514,-1187.36"/>
<text text-anchor="middle" x="499" y="-1165.66" font-family="Helvetica,sans-Serif" font-size="14.00">g/1</text>
</g>
<!-- R4&#45;&gt;g/1 -->
<g id="edge37" class="edge">
<title>R4&#45;&gt;g/1</title>
<path fill="none" stroke="#b26e37" d="M411.85,-697.3C426.35,-775.67 477.65,-1052.96 493.97,-1141.19"/>
<polygon fill="#b26e37" stroke="#b26e37" points="490.57,-1142.02 495.83,-1151.21 497.45,-1140.74 490.57,-1142.02"/>
</g>
<!-- chg/1 -->
<g id="node33" class="node">
<title>chg/1</title>
<path fill="#ffffcc" stroke="black" d="M230,-635.38C230,-635.38 200,-635.38 200,-635.38 194,-635.38 188,-629.38 188,-623.38 188,-623.38 188,-611.38 188,-611.38 188,-605.38 194,-599.38 200,-599.38 200,-599.38 230,-599.38 230,-599.38 236,-599.38 242,-605.38 242,-611.38 242,-611.38 242,-623.38 242,-623.38 242,-629.38 236,-635.38 230,-635.38"/>
<text text-anchor="middle" x="215" y="-613.68" font-family="Helvetica,sans-Serif" font-size="14.00">chg/1</text>
</g>
<!-- R10&#45;&gt;chg/1 -->
<g id="edge52" class="edge">
<title>R10&#45;&gt;chg/1</title>
<path fill="none" stroke="#b26e37" d="M215,-510.19C215,-532.85 215,-565.74 215,-588.9"/>
<polygon fill="#b26e37" stroke="#b26e37" points="211.5,-589.1 215,-599.1 218.5,-589.1 211.5,-589.1"/>
</g>
<!-- node/3 -->
<g id="node35" class="node">
<title>node/3</title>
<path fill="#ffffcc" stroke="black" d="M284,-1743.54C284,-1743.54 250,-1743.54 250,-1743.54 244,-1743.54 238,-1737.54 238,-1731.54 238,-1731.54 238,-1719.54 238,-1719.54 238,-1713.54 244,-1707.54 250,-1707.54 250,-1707.54 284,-1707.54 284,-1707.54 290,-1707.54 296,-1713.54 296,-1719.54 296,-1719.54 296,-1731.54 296,-1731.54 296,-1737.54 290,-1743.54 284,-1743.54"/>
<text text-anchor="middle" x="267" y="-1721.84" font-family="Helvetica,sans-Serif" font-size="14.00">node/3</text>
</g>
<!-- R15&#45;&gt;node/3 -->
<g id="edge59" class="edge">
<title>R15&#45;&gt;node/3</title>
<path fill="none" stroke="#b26e37" d="M113.97,-581.29C106,-634.11 89,-759.15 89,-864.77 89,-864.77 89,-864.77 89,-1133.36 89,-1265.15 51,-1295.66 51,-1427.45 51,-1427.45 51,-1427.45 51,-1644.89 51,-1682.19 165.78,-1707.43 228,-1718.38"/>
<polygon fill="#b26e37" stroke="#b26e37" points="227.42,-1721.83 237.87,-1720.07 228.61,-1714.93 227.42,-1721.83"/>
</g>
<!-- g/1&#45;&gt;R18 -->
<g id="edge33" class="edge">
<title>g/1&#45;&gt;R18</title>
<path fill="none" stroke="#b26e37" d="M471.97,-1177.15C414.82,-1191.51 281.69,-1224.96 217.65,-1241.05"/>
<polygon fill="#b26e37" stroke="#b26e37" points="216.47,-1237.74 207.63,-1243.57 218.18,-1244.53 216.47,-1237.74"/>
</g>
<!-- g/1&#45;&gt;R20 -->
<g id="edge34" class="edge">
<title>g/1&#45;&gt;R20</title>
<path fill="none" stroke="#b26e37" d="M485.98,-1187.64C478.68,-1197.34 469.37,-1209.7 460.96,-1220.85"/>
<polygon fill="#b26e37" stroke="#b26e37" points="457.99,-1218.99 454.77,-1229.08 463.58,-1223.2 457.99,-1218.99"/>
</g>
<!-- g/1&#45;&gt;R21 -->
<g id="edge35" class="edge">
<title>g/1&#45;&gt;R21</title>
<path fill="none" stroke="#b26e37" d="M497.31,-1187.43C495.86,-1203.55 494,-1228.39 494,-1250.01 494,-1250.01 494,-1250.01 494,-1563.25 494,-1581.35 502.23,-1599.63 511.13,-1614.1"/>
<polygon fill="#b26e37" stroke="#b26e37" points="508.28,-1616.14 516.69,-1622.58 514.13,-1612.3 508.28,-1616.14"/>
</g>
<!-- g/1&#45;&gt;R22 -->
<g id="edge36" class="edge">
<title>g/1&#45;&gt;R22</title>
<path fill="none" stroke="#b26e37" d="M510.95,-1187.51C514.66,-1193.1 518.65,-1199.4 522,-1205.36 526.58,-1213.51 527.44,-1215.72 531,-1224.36 588.69,-1364.26 644.95,-1535.76 668.03,-1608.09"/>
<polygon fill="#b26e37" stroke="#b26e37" points="664.83,-1609.56 671.19,-1618.03 671.5,-1607.44 664.83,-1609.56"/>
</g>
<!-- g/1&#45;&gt;R5 -->
<g id="edge32" class="edge">
<title>g/1&#45;&gt;R5</title>
<path fill="none" stroke="#cd0000" stroke-width="1.8" stroke-dasharray="5,2" d="M503.79,-1187.36C505.28,-1193.05 506.83,-1199.45 508,-1205.36 525.23,-1292.75 537.43,-1397.33 542.85,-1448.41"/>
<polygon fill="#cd0000" stroke="#cd0000" stroke-width="1.8" points="539.38,-1448.89 543.9,-1458.47 546.34,-1448.16 539.38,-1448.89"/>
<text text-anchor="middle" x="540.5" y="-1318.6" font-family="Palatino Linotype,serif" font-style="italic" font-size="14.00" fill="#cd0000">not</text>
</g>
<!-- y/1&#45;&gt;R21 -->
<g id="edge39" class="edge">
<title>y/1&#45;&gt;R21</title>
<path fill="none" stroke="#b26e37" d="M545.53,-1580.53C543.94,-1588.46 541.99,-1598.16 540.1,-1607.54"/>
<polygon fill="#b26e37" stroke="#b26e37" points="536.64,-1606.98 538.11,-1617.48 543.51,-1608.36 536.64,-1606.98"/>
</g>
<!-- y/1&#45;&gt;R22 -->
<g id="edge40" class="edge">
<title>y/1&#45;&gt;R22</title>
<path fill="none" stroke="#b26e37" d="M576.27,-1578.99C594.46,-1589.59 618.81,-1604 640,-1617.25 642.82,-1619.01 645.73,-1620.86 648.64,-1622.73"/>
<polygon fill="#b26e37" stroke="#b26e37" points="646.96,-1625.82 657.25,-1628.34 650.78,-1619.95 646.96,-1625.82"/>
</g>
<!-- y/1&#45;&gt;R23 -->
<g id="edge41" class="edge">
<title>y/1&#45;&gt;R23</title>
<path fill="none" stroke="#b26e37" d="M559.78,-1580.61C563.56,-1586.57 567.89,-1593.25 572,-1599.25 575.25,-1603.99 578.78,-1608.97 582.27,-1613.79"/>
<polygon fill="#b26e37" stroke="#b26e37" points="579.7,-1616.21 588.42,-1622.22 585.35,-1612.08 579.7,-1616.21"/>
</g>
<!-- R17 -->
<g id="node28" class="node">
<title>R17</title>
<g id="a_node28"><a xlink:title="(17, &#39;node(y,S,X) :&#45; y(X); fin(S).&#39;)">
<ellipse fill="#ccffcc" stroke="black" cx="267" cy="-1643.89" rx="26.8" ry="26.8"/>
<text text-anchor="middle" x="267" y="-1640.19" font-family="Helvetica,sans-Serif" font-size="14.00">R17</text>
</a>
</g>
</g>
<!-- y/1&#45;&gt;R17 -->
<g id="edge38" class="edge">
<title>y/1&#45;&gt;R17</title>
<path fill="none" stroke="#b26e37" d="M521.96,-1570.88C470.72,-1585.35 359.51,-1616.76 302.41,-1632.89"/>
<polygon fill="#b26e37" stroke="#b26e37" points="301.4,-1629.54 292.73,-1635.63 303.3,-1636.28 301.4,-1629.54"/>
</g>
<!-- R17&#45;&gt;node/3 -->
<g id="edge61" class="edge">
<title>R17&#45;&gt;node/3</title>
<path fill="none" stroke="#b26e37" d="M267,-1670.97C267,-1679.39 267,-1688.75 267,-1697.26"/>
<polygon fill="#b26e37" stroke="#b26e37" points="263.5,-1697.44 267,-1707.44 270.5,-1697.44 263.5,-1697.44"/>
</g>
<!-- r/1 -->
<g id="node29" class="node">
<title>r/1</title>
<path fill="#ffffcc" stroke="black" d="M454,-1402.95C454,-1402.95 424,-1402.95 424,-1402.95 418,-1402.95 412,-1396.95 412,-1390.95 412,-1390.95 412,-1378.95 412,-1378.95 412,-1372.95 418,-1366.95 424,-1366.95 424,-1366.95 454,-1366.95 454,-1366.95 460,-1366.95 466,-1372.95 466,-1378.95 466,-1378.95 466,-1390.95 466,-1390.95 466,-1396.95 460,-1402.95 454,-1402.95"/>
<text text-anchor="middle" x="439" y="-1381.25" font-family="Helvetica,sans-Serif" font-size="14.00">r/1</text>
</g>
<!-- r/1&#45;&gt;R19 -->
<g id="edge44" class="edge">
<title>r/1&#45;&gt;R19</title>
<path fill="none" stroke="#b26e37" d="M411.86,-1394.1C355.4,-1411.04 225.35,-1450.08 162.41,-1468.97"/>
<polygon fill="#b26e37" stroke="#b26e37" points="161.11,-1465.7 152.54,-1471.93 163.13,-1472.41 161.11,-1465.7"/>
</g>
<!-- r/1&#45;&gt;R5 -->
<g id="edge43" class="edge">
<title>r/1&#45;&gt;R5</title>
<path fill="none" stroke="#cd0000" stroke-width="1.8" stroke-dasharray="5,2" d="M458.63,-1403.13C476.47,-1418.74 502.85,-1441.83 521.96,-1458.55"/>
<polygon fill="#cd0000" stroke="#cd0000" stroke-width="1.8" points="519.82,-1461.34 529.65,-1465.29 524.43,-1456.07 519.82,-1461.34"/>
<text text-anchor="middle" x="505.5" y="-1424.75" font-family="Palatino Linotype,serif" font-style="italic" font-size="14.00" fill="#cd0000">not</text>
</g>
<!-- fr/2&#45;&gt;R18 -->
<g id="edge47" class="edge">
<title>fr/2&#45;&gt;R18</title>
<path fill="none" stroke="#b26e37" d="M294.64,-1176.42C274.06,-1181.82 245.77,-1191.11 224,-1205.36 217.11,-1209.87 210.55,-1215.73 204.75,-1221.71"/>
<polygon fill="#b26e37" stroke="#b26e37" points="202.01,-1219.52 197.84,-1229.26 207.18,-1224.25 202.01,-1219.52"/>
</g>
<!-- R6 -->
<g id="node31" class="node">
<title>R6</title>
<g id="a_node31"><a xlink:title="(6, &#39;r(X) :&#45; fr(_,X).&#39;)">
<ellipse fill="#ccffcc" stroke="black" cx="372" cy="-1251.01" rx="22.2" ry="22.2"/>
<text text-anchor="middle" x="372" y="-1247.31" font-family="Helvetica,sans-Serif" font-size="14.00">R6</text>
</a>
</g>
</g>
<!-- fr/2&#45;&gt;R6 -->
<g id="edge45" class="edge">
<title>fr/2&#45;&gt;R6</title>
<path fill="none" stroke="#b26e37" d="M332.85,-1187.64C339.4,-1198.07 347.87,-1211.57 355.26,-1223.34"/>
<polygon fill="#b26e37" stroke="#b26e37" points="352.37,-1225.32 360.65,-1231.93 358.3,-1221.6 352.37,-1225.32"/>
</g>
<!-- R16 -->
<g id="node32" class="node">
<title>R16</title>
<g id="a_node32"><a xlink:title="(16, &#39;node(r,S,X) :&#45; fr(S,X).&#39;)">
<ellipse fill="#ccffcc" stroke="black" cx="322" cy="-1322.3" rx="26.8" ry="26.8"/>
<text text-anchor="middle" x="322" y="-1318.6" font-family="Helvetica,sans-Serif" font-size="14.00">R16</text>
</a>
</g>
</g>
<!-- fr/2&#45;&gt;R16 -->
<g id="edge46" class="edge">
<title>fr/2&#45;&gt;R16</title>
<path fill="none" stroke="#b26e37" d="M322,-1187.38C322,-1210.97 322,-1254.18 322,-1285.15"/>
<polygon fill="#b26e37" stroke="#b26e37" points="318.5,-1285.54 322,-1295.54 325.5,-1285.54 318.5,-1285.54"/>
</g>
<!-- R6&#45;&gt;r/1 -->
<g id="edge48" class="edge">
<title>R6&#45;&gt;r/1</title>
<path fill="none" stroke="#b26e37" d="M381.6,-1270.91C393.15,-1293.66 412.61,-1331.98 425.63,-1357.62"/>
<polygon fill="#b26e37" stroke="#b26e37" points="422.62,-1359.43 430.27,-1366.76 428.86,-1356.26 422.62,-1359.43"/>
</g>
<!-- R16&#45;&gt;node/3 -->
<g id="edge60" class="edge">
<title>R16&#45;&gt;node/3</title>
<path fill="none" stroke="#b26e37" d="M322,-1348.98C322,-1370.06 322,-1400.69 322,-1427.45 322,-1427.45 322,-1427.45 322,-1644.89 322,-1665.88 308.91,-1685.34 295.51,-1699.78"/>
<polygon fill="#b26e37" stroke="#b26e37" points="292.65,-1697.68 288.11,-1707.25 297.63,-1702.61 292.65,-1697.68"/>
</g>
<!-- chg/1&#45;&gt;R8 -->
<g id="edge50" class="edge">
<title>chg/1&#45;&gt;R8</title>
<path fill="none" stroke="#b26e37" d="M213.11,-635.58C211.1,-653.83 207.89,-683.07 205.43,-705.42"/>
<polygon fill="#b26e37" stroke="#b26e37" points="201.95,-705.12 204.33,-715.45 208.9,-705.89 201.95,-705.12"/>
</g>
<!-- chg/1&#45;&gt;R11 -->
<g id="edge51" class="edge">
<title>chg/1&#45;&gt;R11</title>
<path fill="none" stroke="#cd0000" stroke-width="1.8" stroke-dasharray="5,2" d="M219.05,-635.43C220.37,-641.13 221.79,-647.52 223,-653.38 239.17,-731.9 255.5,-824.53 264,-874.02"/>
<polygon fill="#cd0000" stroke="#cd0000" stroke-width="1.8" points="260.56,-874.64 265.69,-883.91 267.46,-873.46 260.56,-874.64"/>
<text text-anchor="middle" x="259.5" y="-781.57" font-family="Palatino Linotype,serif" font-style="italic" font-size="14.00" fill="#cd0000">not</text>
</g>
<!-- fin/1&#45;&gt;R14 -->
<g id="edge53" class="edge">
<title>fin/1&#45;&gt;R14</title>
<path fill="none" stroke="#cd0000" stroke-width="1.8" stroke-dasharray="5,2" d="M279.54,-1010.24C286.48,-1022.75 296.09,-1040.05 304.41,-1055.03"/>
<polygon fill="#cd0000" stroke="#cd0000" stroke-width="1.8" points="301.47,-1056.95 309.39,-1063.99 307.59,-1053.55 301.47,-1056.95"/>
<text text-anchor="middle" x="307.5" y="-1031.86" font-family="Palatino Linotype,serif" font-style="italic" font-size="14.00" fill="#cd0000">not</text>
</g>
<!-- fin/1&#45;&gt;R17 -->
<g id="edge54" class="edge">
<title>fin/1&#45;&gt;R17</title>
<path fill="none" stroke="#b26e37" d="M269.12,-1010.32C268.23,-1029.1 267,-1060.03 267,-1086.71 267,-1086.71 267,-1086.71 267,-1563.25 267,-1577.57 267,-1593.34 267,-1607.05"/>
<polygon fill="#b26e37" stroke="#b26e37" points="263.5,-1607.07 267,-1617.07 270.5,-1607.07 263.5,-1607.07"/>
</g>
</g>
</svg>
